<svg width="80" height="60" viewBox="0 0 80 60" fill="none" xmlns="http://www.w3.org/2000/svg">
<g clip-path="url(#clip0_113_228)">
<path d="M77.4372 16.2098C78.6922 17.0575 80 18.3864 80 20.2531V26.3291C80 28.1958 78.6922 29.5247 77.4372 30.3724C76.7249 30.8535 75.88 31.2859 74.9367 31.6728V33.4177C74.9367 33.8357 74.8711 34.2268 74.7552 34.5916C75.4416 35.3508 75.9494 36.3051 75.9494 37.4683V43.5443C75.9494 45.411 74.6415 46.7399 73.3866 47.5876C72.0609 48.4831 70.2758 49.2097 68.2518 49.788C64.1764 50.9524 58.6638 51.6455 52.6582 51.6455C46.6526 51.6455 41.1401 50.9524 37.0646 49.788C35.0407 49.2097 33.2555 48.4831 31.9299 47.5876C30.6749 46.7399 29.3671 45.411 29.3671 43.5443V37.4683C29.3671 37.0502 29.4327 36.6592 29.5486 36.2944C28.8622 35.5352 28.3544 34.5809 28.3544 33.4177V27.3417C28.3544 25.475 29.6623 24.1461 30.9172 23.2984C31.6295 22.8173 32.4744 22.3849 33.4177 21.998V20.2531C33.4177 18.3864 34.7256 17.0575 35.9805 16.2098C37.3062 15.3143 39.0913 14.5877 41.1153 14.0094C45.1907 12.845 50.7032 12.1519 56.7089 12.1519C62.7145 12.1519 68.227 12.845 72.3025 14.0094C74.3264 14.5877 76.1116 15.3143 77.4372 16.2098Z" fill="#021024" fill-opacity="0.1"/>
<path d="M71.8988 35.443C71.8988 32.0874 62.3777 29.3671 50.6329 29.3671C38.8882 29.3671 29.3671 32.0874 29.3671 35.443V41.519C29.3671 44.8746 38.8882 47.5949 50.6329 47.5949C62.3777 47.5949 71.8988 44.8746 71.8988 41.519V35.443Z" fill="#FF934A"/>
<path fill-rule="evenodd" clip-rule="evenodd" d="M71.3613 31.3997C72.6162 32.2475 73.9241 33.5763 73.9241 35.4431V41.519C73.9241 43.3858 72.6162 44.7146 71.3613 45.5623C70.0356 46.4578 68.2505 47.1845 66.2265 47.7627C62.1511 48.9272 56.6385 49.6203 50.6329 49.6203C44.6273 49.6203 39.1148 48.9272 35.0393 47.7627C33.0154 47.1845 31.2302 46.4578 29.9046 45.5623C28.6496 44.7146 27.3418 43.3858 27.3418 41.519V35.4431C27.3418 33.5763 28.6496 32.2475 29.9046 31.3997C31.2302 30.5043 33.0154 29.7776 35.0393 29.1993C39.1148 28.0349 44.6273 27.3418 50.6329 27.3418C56.6385 27.3418 62.1511 28.0349 66.2265 29.1993C68.2505 29.7776 70.0356 30.5043 71.3613 31.3997ZM50.6329 29.3671C62.3777 29.3671 71.8988 32.0874 71.8988 35.4431V41.519C71.8988 44.8747 62.3777 47.595 50.6329 47.595C38.8881 47.595 29.3671 44.8747 29.3671 41.519V35.4431C29.3671 32.0874 38.8881 29.3671 50.6329 29.3671Z" fill="#2C3C4F"/>
<path d="M71.8988 35.443C71.8988 38.7987 62.3777 41.519 50.6329 41.519C38.8882 41.519 29.3671 38.7987 29.3671 35.443C29.3671 32.0874 38.8882 29.3671 50.6329 29.3671C62.3777 29.3671 71.8988 32.0874 71.8988 35.443Z" fill="#6A7788"/>
<path fill-rule="evenodd" clip-rule="evenodd" d="M66.2265 41.6868C62.1511 42.8512 56.6385 43.5443 50.6329 43.5443C44.6273 43.5443 39.1148 42.8512 35.0393 41.6868C33.0154 41.1085 31.2302 40.3819 29.9046 39.4864C28.6496 38.6387 27.3418 37.3098 27.3418 35.4431C27.3418 33.5763 28.6496 32.2475 29.9046 31.3997C31.2302 30.5043 33.0154 29.7776 35.0393 29.1993C39.1148 28.0349 44.6273 27.3418 50.6329 27.3418C56.6385 27.3418 62.1511 28.0349 66.2265 29.1993C68.2505 29.7776 70.0356 30.5043 71.3613 31.3997C72.6162 32.2475 73.9241 33.5763 73.9241 35.4431C73.9241 37.3098 72.6162 38.6387 71.3613 39.4864C70.0356 40.3819 68.2505 41.1085 66.2265 41.6868ZM50.6329 41.519C62.3777 41.519 71.8988 38.7987 71.8988 35.4431C71.8988 32.0874 62.3777 29.3671 50.6329 29.3671C38.8881 29.3671 29.3671 32.0874 29.3671 35.4431C29.3671 38.7987 38.8881 41.519 50.6329 41.519Z" fill="#2C3C4F"/>
<path fill-rule="evenodd" clip-rule="evenodd" d="M34.4304 39.4937C34.9897 39.4937 35.443 39.947 35.443 40.5063V46.0759C35.443 46.6352 34.9897 47.0886 34.4304 47.0886C33.8711 47.0886 33.4177 46.6352 33.4177 46.0759V40.5063C33.4177 39.947 33.8711 39.4937 34.4304 39.4937Z" fill="#2C3C4F"/>
<path fill-rule="evenodd" clip-rule="evenodd" d="M66.8355 39.4937C67.3947 39.4937 67.8481 39.947 67.8481 40.5063V46.0759C67.8481 46.6352 67.3947 47.0886 66.8355 47.0886C66.2762 47.0886 65.8228 46.6352 65.8228 46.0759V40.5063C65.8228 39.947 66.2762 39.4937 66.8355 39.4937Z" fill="#2C3C4F"/>
<path fill-rule="evenodd" clip-rule="evenodd" d="M42.5316 41.519C43.0909 41.519 43.5443 41.9724 43.5443 42.5317V47.0887C43.5443 47.6479 43.0909 48.1013 42.5316 48.1013C41.9724 48.1013 41.519 47.6479 41.519 47.0887V42.5317C41.519 41.9724 41.9724 41.519 42.5316 41.519Z" fill="#2C3C4F"/>
<path fill-rule="evenodd" clip-rule="evenodd" d="M59.7469 41.519C60.3061 41.519 60.7595 41.9724 60.7595 42.5317V47.0887C60.7595 47.6479 60.3061 48.1013 59.7469 48.1013C59.1876 48.1013 58.7342 47.6479 58.7342 47.0887V42.5317C58.7342 41.9724 59.1876 41.519 59.7469 41.519Z" fill="#2C3C4F"/>
<path fill-rule="evenodd" clip-rule="evenodd" d="M51.6456 41.519C52.2049 41.519 52.6582 41.9724 52.6582 42.5317V47.0887C52.6582 47.6479 52.2049 48.1013 51.6456 48.1013C51.0863 48.1013 50.6329 47.6479 50.6329 47.0887V42.5317C50.6329 41.9724 51.0863 41.519 51.6456 41.519Z" fill="#2C3C4F"/>
<path d="M70.8861 25.3164C70.8861 21.9608 61.365 19.2405 49.6203 19.2405C37.8755 19.2405 28.3544 21.9608 28.3544 25.3164V31.3924C28.3544 34.748 37.8755 37.4683 49.6203 37.4683C61.365 37.4683 70.8861 34.748 70.8861 31.3924V25.3164Z" fill="#FF934A"/>
<path fill-rule="evenodd" clip-rule="evenodd" d="M70.3486 21.2732C71.6035 22.1209 72.9114 23.4497 72.9114 25.3165V31.3924C72.9114 33.2592 71.6035 34.588 70.3486 35.4357C69.0229 36.3312 67.2378 37.0579 65.2138 37.6362C61.1384 38.8006 55.6259 39.4937 49.6202 39.4937C43.6146 39.4937 38.1021 38.8006 34.0266 37.6362C32.0027 37.0579 30.2175 36.3312 28.8919 35.4357C27.6369 34.588 26.3291 33.2592 26.3291 31.3924V25.3165C26.3291 23.4497 27.6369 22.1209 28.8919 21.2732C30.2175 20.3777 32.0027 19.651 34.0266 19.0727C38.1021 17.9083 43.6146 17.2152 49.6202 17.2152C55.6259 17.2152 61.1384 17.9083 65.2138 19.0727C67.2378 19.651 69.0229 20.3777 70.3486 21.2732ZM49.6202 19.2405C61.365 19.2405 70.8861 21.9608 70.8861 25.3165V31.3924C70.8861 34.7481 61.365 37.4684 49.6202 37.4684C37.8755 37.4684 28.3544 34.7481 28.3544 31.3924V25.3165C28.3544 21.9608 37.8755 19.2405 49.6202 19.2405Z" fill="#2C3C4F"/>
<path d="M70.8861 25.3164C70.8861 28.6721 61.365 31.3924 49.6203 31.3924C37.8755 31.3924 28.3544 28.6721 28.3544 25.3164C28.3544 21.9608 37.8755 19.2405 49.6203 19.2405C61.365 19.2405 70.8861 21.9608 70.8861 25.3164Z" fill="#6A7788"/>
<path fill-rule="evenodd" clip-rule="evenodd" d="M65.2138 31.5602C61.1384 32.7246 55.6259 33.4177 49.6202 33.4177C43.6146 33.4177 38.1021 32.7246 34.0266 31.5602C32.0027 30.9819 30.2175 30.2553 28.8919 29.3598C27.6369 28.5121 26.3291 27.1832 26.3291 25.3165C26.3291 23.4497 27.6369 22.1209 28.8919 21.2732C30.2175 20.3777 32.0027 19.651 34.0266 19.0727C38.1021 17.9083 43.6146 17.2152 49.6202 17.2152C55.6259 17.2152 61.1384 17.9083 65.2138 19.0727C67.2378 19.651 69.0229 20.3777 70.3486 21.2732C71.6035 22.1209 72.9114 23.4497 72.9114 25.3165C72.9114 27.1832 71.6035 28.5121 70.3486 29.3598C69.0229 30.2553 67.2378 30.9819 65.2138 31.5602ZM49.6202 31.3924C61.365 31.3924 70.8861 28.6721 70.8861 25.3165C70.8861 21.9608 61.365 19.2405 49.6202 19.2405C37.8755 19.2405 28.3544 21.9608 28.3544 25.3165C28.3544 28.6721 37.8755 31.3924 49.6202 31.3924Z" fill="#2C3C4F"/>
<path fill-rule="evenodd" clip-rule="evenodd" d="M33.4177 29.3671C33.977 29.3671 34.4303 29.8204 34.4303 30.3797V35.9493C34.4303 36.5086 33.977 36.962 33.4177 36.962C32.8584 36.962 32.405 36.5086 32.405 35.9493V30.3797C32.405 29.8204 32.8584 29.3671 33.4177 29.3671Z" fill="#2C3C4F"/>
<path fill-rule="evenodd" clip-rule="evenodd" d="M65.8228 29.3671C66.3821 29.3671 66.8354 29.8204 66.8354 30.3797V35.9493C66.8354 36.5086 66.3821 36.962 65.8228 36.962C65.2635 36.962 64.8101 36.5086 64.8101 35.9493V30.3797C64.8101 29.8204 65.2635 29.3671 65.8228 29.3671Z" fill="#2C3C4F"/>
<path fill-rule="evenodd" clip-rule="evenodd" d="M41.519 31.3925C42.0783 31.3925 42.5317 31.8458 42.5317 32.4051V36.9621C42.5317 37.5214 42.0783 37.9747 41.519 37.9747C40.9597 37.9747 40.5063 37.5214 40.5063 36.9621V32.4051C40.5063 31.8458 40.9597 31.3925 41.519 31.3925Z" fill="#2C3C4F"/>
<path fill-rule="evenodd" clip-rule="evenodd" d="M58.7342 31.3925C59.2934 31.3925 59.7468 31.8458 59.7468 32.4051V36.9621C59.7468 37.5214 59.2934 37.9747 58.7342 37.9747C58.1749 37.9747 57.7215 37.5214 57.7215 36.9621V32.4051C57.7215 31.8458 58.1749 31.3925 58.7342 31.3925Z" fill="#2C3C4F"/>
<path fill-rule="evenodd" clip-rule="evenodd" d="M50.6329 31.3925C51.1922 31.3925 51.6456 31.8458 51.6456 32.4051V36.9621C51.6456 37.5214 51.1922 37.9747 50.6329 37.9747C50.0736 37.9747 49.6202 37.5214 49.6202 36.9621V32.4051C49.6202 31.8458 50.0736 31.3925 50.6329 31.3925Z" fill="#2C3C4F"/>
<path d="M75.9494 18.2278C75.9494 14.8722 66.4283 12.1519 54.6835 12.1519C42.9388 12.1519 33.4177 14.8722 33.4177 18.2278V24.3038C33.4177 27.6594 42.9388 30.3797 54.6835 30.3797C66.4283 30.3797 75.9494 27.6594 75.9494 24.3038V18.2278Z" fill="#FF934A"/>
<path fill-rule="evenodd" clip-rule="evenodd" d="M75.4119 14.1845C76.6668 15.0323 77.9747 16.3611 77.9747 18.2279V24.3038C77.9747 26.1706 76.6668 27.4994 75.4119 28.3471C74.0862 29.2426 72.3011 29.9693 70.2771 30.5475C66.2017 31.712 60.6892 32.4051 54.6835 32.4051C48.6779 32.4051 43.1654 31.712 39.0899 30.5475C37.066 29.9693 35.2808 29.2426 33.9552 28.3471C32.7002 27.4994 31.3924 26.1706 31.3924 24.3038V18.2279C31.3924 16.3611 32.7002 15.0323 33.9552 14.1845C35.2808 13.2891 37.066 12.5624 39.0899 11.9841C43.1654 10.8197 48.6779 10.1266 54.6835 10.1266C60.6892 10.1266 66.2017 10.8197 70.2771 11.9841C72.3011 12.5624 74.0862 13.2891 75.4119 14.1845ZM54.6835 12.1519C66.4283 12.1519 75.9494 14.8722 75.9494 18.2279V24.3038C75.9494 27.6595 66.4283 30.3798 54.6835 30.3798C42.9387 30.3798 33.4177 27.6595 33.4177 24.3038V18.2279C33.4177 14.8722 42.9387 12.1519 54.6835 12.1519Z" fill="#2C3C4F"/>
<path d="M75.9494 18.2278C75.9494 21.5835 66.4283 24.3038 54.6835 24.3038C42.9388 24.3038 33.4177 21.5835 33.4177 18.2278C33.4177 14.8722 42.9388 12.1519 54.6835 12.1519C66.4283 12.1519 75.9494 14.8722 75.9494 18.2278Z" fill="#6A7788"/>
<path fill-rule="evenodd" clip-rule="evenodd" d="M70.2771 24.4716C66.2017 25.636 60.6892 26.3291 54.6835 26.3291C48.6779 26.3291 43.1654 25.636 39.0899 24.4716C37.066 23.8933 35.2808 23.1667 33.9552 22.2712C32.7002 21.4234 31.3924 20.0946 31.3924 18.2279C31.3924 16.3611 32.7002 15.0323 33.9552 14.1845C35.2808 13.2891 37.066 12.5624 39.0899 11.9841C43.1654 10.8197 48.6779 10.1266 54.6835 10.1266C60.6892 10.1266 66.2017 10.8197 70.2771 11.9841C72.3011 12.5624 74.0862 13.2891 75.4119 14.1845C76.6668 15.0323 77.9747 16.3611 77.9747 18.2279C77.9747 20.0946 76.6668 21.4234 75.4119 22.2712C74.0862 23.1667 72.3011 23.8933 70.2771 24.4716ZM54.6835 24.3038C66.4283 24.3038 75.9494 21.5835 75.9494 18.2279C75.9494 14.8722 66.4283 12.1519 54.6835 12.1519C42.9387 12.1519 33.4177 14.8722 33.4177 18.2279C33.4177 21.5835 42.9387 24.3038 54.6835 24.3038Z" fill="#2C3C4F"/>
<path fill-rule="evenodd" clip-rule="evenodd" d="M38.481 22.2784C39.0403 22.2784 39.4936 22.7318 39.4936 23.2911V28.8607C39.4936 29.42 39.0403 29.8734 38.481 29.8734C37.9217 29.8734 37.4683 29.42 37.4683 28.8607V23.2911C37.4683 22.7318 37.9217 22.2784 38.481 22.2784Z" fill="#2C3C4F"/>
<path fill-rule="evenodd" clip-rule="evenodd" d="M70.8861 22.2784C71.4453 22.2784 71.8987 22.7318 71.8987 23.2911V28.8607C71.8987 29.42 71.4453 29.8734 70.8861 29.8734C70.3268 29.8734 69.8734 29.42 69.8734 28.8607V23.2911C69.8734 22.7318 70.3268 22.2784 70.8861 22.2784Z" fill="#2C3C4F"/>
<path fill-rule="evenodd" clip-rule="evenodd" d="M46.5823 24.3038C47.1416 24.3038 47.595 24.7572 47.595 25.3165V29.8735C47.595 30.4327 47.1416 30.8861 46.5823 30.8861C46.023 30.8861 45.5696 30.4327 45.5696 29.8735V25.3165C45.5696 24.7572 46.023 24.3038 46.5823 24.3038Z" fill="#2C3C4F"/>
<path fill-rule="evenodd" clip-rule="evenodd" d="M63.7974 24.3038C64.3567 24.3038 64.8101 24.7572 64.8101 25.3165V29.8735C64.8101 30.4327 64.3567 30.8861 63.7974 30.8861C63.2382 30.8861 62.7848 30.4327 62.7848 29.8735V25.3165C62.7848 24.7572 63.2382 24.3038 63.7974 24.3038Z" fill="#2C3C4F"/>
<path fill-rule="evenodd" clip-rule="evenodd" d="M55.6962 24.3038C56.2555 24.3038 56.7089 24.7572 56.7089 25.3165V29.8735C56.7089 30.4327 56.2555 30.8861 55.6962 30.8861C55.1369 30.8861 54.6835 30.4327 54.6835 29.8735V25.3165C54.6835 24.7572 55.1369 24.3038 55.6962 24.3038Z" fill="#2C3C4F"/>
<path d="M51.6456 10.1265C51.6456 8.25977 50.3377 6.93094 49.0828 6.08321C47.7571 5.18773 45.972 4.46107 43.948 3.8828C39.8726 2.71838 34.3601 2.02527 28.3544 2.02527C22.3488 2.02527 16.8363 2.71838 12.7608 3.8828C10.7369 4.46107 8.95175 5.18773 7.6261 6.08321C6.37114 6.93094 5.0633 8.25977 5.0633 10.1265V16.2025C5.0633 18.0692 6.37114 19.3981 7.6261 20.2458C8.50922 20.8424 9.59626 21.364 10.822 21.8167C10.4451 21.911 10.0785 22.009 9.72286 22.1106C7.69891 22.6889 5.91377 23.4156 4.58813 24.3111C3.33317 25.1588 2.02533 26.4876 2.02533 28.3544V34.4303C2.02533 36.2971 3.33317 37.6259 4.58813 38.4737C5.77917 39.2782 7.34112 39.9465 9.11394 40.4933V40.6779C8.57147 40.942 8.07271 41.2246 7.6261 41.5262C6.37114 42.374 5.0633 43.7028 5.0633 45.5696V51.6455C5.0633 53.5123 6.37114 54.8411 7.6261 55.6888C8.95175 56.5843 10.7369 57.311 12.7608 57.8892C16.8363 59.0537 22.3488 59.7468 28.3544 59.7468C34.3601 59.7468 39.8726 59.0537 43.948 57.8892C45.972 57.311 47.7571 56.5843 49.0828 55.6888C50.3377 54.8411 51.6456 53.5123 51.6456 51.6455V47.4233C52.1881 47.1591 52.6868 46.8766 53.1334 46.5749C54.3884 45.7272 55.6962 44.3984 55.6962 42.5316V36.4556C55.6962 34.5889 54.3884 33.2601 53.1334 32.4123C52.5136 31.9937 51.7934 31.6119 50.9953 31.2649C52.6186 30.7401 54.0495 30.109 55.1587 29.3597C56.4137 28.512 57.7215 27.1832 57.7215 25.3164V19.2405C57.7215 17.3737 56.4137 16.0449 55.1587 15.1971C54.2001 14.5496 53.0013 13.9903 51.6456 13.5116V10.1265Z" fill="#021024" fill-opacity="0.1"/>
<path d="M47.5949 43.5442C47.5949 40.1886 38.0739 37.4683 26.3291 37.4683C14.5843 37.4683 5.06329 40.1886 5.06329 43.5442V49.6202C5.06329 52.9758 14.5843 55.6961 26.3291 55.6961C38.0739 55.6961 47.5949 52.9758 47.5949 49.6202V43.5442Z" fill="#FF934A"/>
<path fill-rule="evenodd" clip-rule="evenodd" d="M47.0574 39.5009C48.3124 40.3487 49.6202 41.6775 49.6202 43.5443V49.6202C49.6202 51.487 48.3124 52.8158 47.0574 53.6635C45.7318 54.559 43.9467 55.2857 41.9227 55.8639C37.8472 57.0284 32.3347 57.7215 26.3291 57.7215C20.3235 57.7215 14.811 57.0284 10.7355 55.8639C8.71154 55.2857 6.92641 54.559 5.60076 53.6635C4.3458 52.8158 3.03796 51.487 3.03796 49.6202V43.5443C3.03796 41.6775 4.3458 40.3487 5.60076 39.5009C6.92641 38.6055 8.71154 37.8788 10.7355 37.3005C14.811 36.1361 20.3235 35.443 26.3291 35.443C32.3347 35.443 37.8472 36.1361 41.9227 37.3005C43.9467 37.8788 45.7318 38.6055 47.0574 39.5009ZM26.3291 37.4683C38.0739 37.4683 47.5949 40.1886 47.5949 43.5443V49.6202C47.5949 52.9759 38.0739 55.6962 26.3291 55.6962C14.5843 55.6962 5.06328 52.9759 5.06328 49.6202V43.5443C5.06328 40.1886 14.5843 37.4683 26.3291 37.4683Z" fill="#2C3C4F"/>
<path d="M47.5949 43.5442C47.5949 46.8999 38.0739 49.6202 26.3291 49.6202C14.5843 49.6202 5.06329 46.8999 5.06329 43.5442C5.06329 40.1886 14.5843 37.4683 26.3291 37.4683C38.0739 37.4683 47.5949 40.1886 47.5949 43.5442Z" fill="#6A7788"/>
<path fill-rule="evenodd" clip-rule="evenodd" d="M41.9227 49.788C37.8472 50.9524 32.3347 51.6455 26.3291 51.6455C20.3235 51.6455 14.811 50.9524 10.7355 49.788C8.71154 49.2097 6.92641 48.4831 5.60076 47.5876C4.3458 46.7399 3.03796 45.411 3.03796 43.5443C3.03796 41.6775 4.3458 40.3487 5.60076 39.5009C6.92641 38.6055 8.71154 37.8788 10.7355 37.3005C14.811 36.1361 20.3235 35.443 26.3291 35.443C32.3347 35.443 37.8472 36.1361 41.9227 37.3005C43.9467 37.8788 45.7318 38.6055 47.0574 39.5009C48.3124 40.3487 49.6202 41.6775 49.6202 43.5443C49.6202 45.411 48.3124 46.7399 47.0574 47.5876C45.7318 48.4831 43.9467 49.2097 41.9227 49.788ZM26.3291 49.6202C38.0739 49.6202 47.5949 46.8999 47.5949 43.5443C47.5949 40.1886 38.0739 37.4683 26.3291 37.4683C14.5843 37.4683 5.06328 40.1886 5.06328 43.5443C5.06328 46.8999 14.5843 49.6202 26.3291 49.6202Z" fill="#2C3C4F"/>
<path fill-rule="evenodd" clip-rule="evenodd" d="M10.1265 47.5948C10.6858 47.5948 11.1392 48.0482 11.1392 48.6075V54.1771C11.1392 54.7364 10.6858 55.1898 10.1265 55.1898C9.56727 55.1898 9.11389 54.7364 9.11389 54.1771V48.6075C9.11389 48.0482 9.56727 47.5948 10.1265 47.5948Z" fill="#2C3C4F"/>
<path fill-rule="evenodd" clip-rule="evenodd" d="M42.5316 47.5948C43.0909 47.5948 43.5443 48.0482 43.5443 48.6075V54.1771C43.5443 54.7364 43.0909 55.1898 42.5316 55.1898C41.9724 55.1898 41.519 54.7364 41.519 54.1771V48.6075C41.519 48.0482 41.9724 47.5948 42.5316 47.5948Z" fill="#2C3C4F"/>
<path fill-rule="evenodd" clip-rule="evenodd" d="M18.2278 49.6202C18.7871 49.6202 19.2405 50.0736 19.2405 50.6329V55.1899C19.2405 55.7491 18.7871 56.2025 18.2278 56.2025C17.6685 56.2025 17.2151 55.7491 17.2151 55.1899V50.6329C17.2151 50.0736 17.6685 49.6202 18.2278 49.6202Z" fill="#2C3C4F"/>
<path fill-rule="evenodd" clip-rule="evenodd" d="M35.443 49.6202C36.0023 49.6202 36.4557 50.0736 36.4557 50.6329V55.1899C36.4557 55.7491 36.0023 56.2025 35.443 56.2025C34.8837 56.2025 34.4304 55.7491 34.4304 55.1899V50.6329C34.4304 50.0736 34.8837 49.6202 35.443 49.6202Z" fill="#2C3C4F"/>
<path fill-rule="evenodd" clip-rule="evenodd" d="M27.3418 49.6202C27.901 49.6202 28.3544 50.0736 28.3544 50.6329V55.1899C28.3544 55.7491 27.901 56.2025 27.3418 56.2025C26.7825 56.2025 26.3291 55.7491 26.3291 55.1899V50.6329C26.3291 50.0736 26.7825 49.6202 27.3418 49.6202Z" fill="#2C3C4F"/>
<path d="M51.6456 34.4303C51.6456 31.0747 42.1246 28.3544 30.3798 28.3544C18.635 28.3544 9.11395 31.0747 9.11395 34.4303V40.5063C9.11395 43.8619 18.635 46.5822 30.3798 46.5822C42.1246 46.5822 51.6456 43.8619 51.6456 40.5063V34.4303Z" fill="#FF934A"/>
<path fill-rule="evenodd" clip-rule="evenodd" d="M51.1081 30.387C52.3631 31.2348 53.6709 32.5636 53.6709 34.4304V40.5063C53.6709 42.3731 52.3631 43.7019 51.1081 44.5496C49.7825 45.4451 47.9973 46.1718 45.9734 46.7501C41.8979 47.9145 36.3854 48.6076 30.3798 48.6076C24.3741 48.6076 18.8616 47.9145 14.7862 46.7501C12.7622 46.1718 10.9771 45.4451 9.65142 44.5496C8.39646 43.7019 7.08862 42.3731 7.08862 40.5063V34.4304C7.08862 32.5636 8.39646 31.2348 9.65142 30.387C10.9771 29.4916 12.7622 28.7649 14.7862 28.1866C18.8616 27.0222 24.3741 26.3291 30.3798 26.3291C36.3854 26.3291 41.8979 27.0222 45.9734 28.1866C47.9973 28.7649 49.7825 29.4916 51.1081 30.387ZM30.3798 28.3544C42.1246 28.3544 51.6456 31.0747 51.6456 34.4304V40.5063C51.6456 43.862 42.1246 46.5823 30.3798 46.5823C18.635 46.5823 9.11394 43.862 9.11394 40.5063V34.4304C9.11394 31.0747 18.635 28.3544 30.3798 28.3544Z" fill="#2C3C4F"/>
<path d="M51.6456 34.4303C51.6456 37.786 42.1246 40.5063 30.3798 40.5063C18.635 40.5063 9.11395 37.786 9.11395 34.4303C9.11395 31.0747 18.635 28.3544 30.3798 28.3544C42.1246 28.3544 51.6456 31.0747 51.6456 34.4303Z" fill="#6A7788"/>
<path fill-rule="evenodd" clip-rule="evenodd" d="M45.9734 40.6741C41.8979 41.8385 36.3854 42.5316 30.3798 42.5316C24.3741 42.5316 18.8616 41.8385 14.7862 40.6741C12.7622 40.0958 10.9771 39.3692 9.65142 38.4737C8.39646 37.626 7.08862 36.2971 7.08862 34.4304C7.08862 32.5636 8.39646 31.2348 9.65142 30.387C10.9771 29.4916 12.7622 28.7649 14.7862 28.1866C18.8616 27.0222 24.3741 26.3291 30.3798 26.3291C36.3854 26.3291 41.8979 27.0222 45.9734 28.1866C47.9973 28.7649 49.7825 29.4916 51.1081 30.387C52.3631 31.2348 53.6709 32.5636 53.6709 34.4304C53.6709 36.2971 52.3631 37.626 51.1081 38.4737C49.7825 39.3692 47.9973 40.0958 45.9734 40.6741ZM30.3798 40.5063C42.1246 40.5063 51.6456 37.786 51.6456 34.4304C51.6456 31.0747 42.1246 28.3544 30.3798 28.3544C18.635 28.3544 9.11394 31.0747 9.11394 34.4304C9.11394 37.786 18.635 40.5063 30.3798 40.5063Z" fill="#2C3C4F"/>
<path fill-rule="evenodd" clip-rule="evenodd" d="M14.1772 38.481C14.7365 38.481 15.1899 38.9343 15.1899 39.4936V45.0632C15.1899 45.6225 14.7365 46.0759 14.1772 46.0759C13.6179 46.0759 13.1646 45.6225 13.1646 45.0632V39.4936C13.1646 38.9343 13.6179 38.481 14.1772 38.481Z" fill="#2C3C4F"/>
<path fill-rule="evenodd" clip-rule="evenodd" d="M46.5823 38.481C47.1416 38.481 47.595 38.9343 47.595 39.4936V45.0632C47.595 45.6225 47.1416 46.0759 46.5823 46.0759C46.023 46.0759 45.5696 45.6225 45.5696 45.0632V39.4936C45.5696 38.9343 46.023 38.481 46.5823 38.481Z" fill="#2C3C4F"/>
<path fill-rule="evenodd" clip-rule="evenodd" d="M22.2785 40.5063C22.8378 40.5063 23.2912 40.9597 23.2912 41.519V46.076C23.2912 46.6352 22.8378 47.0886 22.2785 47.0886C21.7193 47.0886 21.2659 46.6352 21.2659 46.076V41.519C21.2659 40.9597 21.7193 40.5063 22.2785 40.5063Z" fill="#2C3C4F"/>
<path fill-rule="evenodd" clip-rule="evenodd" d="M39.4937 40.5063C40.053 40.5063 40.5063 40.9597 40.5063 41.519V46.076C40.5063 46.6352 40.053 47.0886 39.4937 47.0886C38.9344 47.0886 38.481 46.6352 38.481 46.076V41.519C38.481 40.9597 38.9344 40.5063 39.4937 40.5063Z" fill="#2C3C4F"/>
<path fill-rule="evenodd" clip-rule="evenodd" d="M31.3924 40.5063C31.9517 40.5063 32.4051 40.9597 32.4051 41.519V46.076C32.4051 46.6352 31.9517 47.0886 31.3924 47.0886C30.8331 47.0886 30.3798 46.6352 30.3798 46.076V41.519C30.3798 40.9597 30.8331 40.5063 31.3924 40.5063Z" fill="#2C3C4F"/>
<path d="M44.557 26.3291C44.557 22.9735 35.0359 20.2532 23.2912 20.2532C11.5464 20.2532 2.02533 22.9735 2.02533 26.3291V32.4051C2.02533 35.7607 11.5464 38.481 23.2912 38.481C35.0359 38.481 44.557 35.7607 44.557 32.4051V26.3291Z" fill="#FF934A"/>
<path fill-rule="evenodd" clip-rule="evenodd" d="M44.0195 22.2858C45.2744 23.1336 46.5823 24.4624 46.5823 26.3292V32.4051C46.5823 34.2719 45.2744 35.6007 44.0195 36.4484C42.6938 37.3439 40.9087 38.0706 38.8847 38.6489C34.8093 39.8133 29.2968 40.5064 23.2911 40.5064C17.2855 40.5064 11.773 39.8133 7.69753 38.6489C5.67358 38.0706 3.88845 37.3439 2.5628 36.4484C1.30784 35.6007 0 34.2719 0 32.4051V26.3292C0 24.4624 1.30784 23.1336 2.5628 22.2858C3.88845 21.3904 5.67358 20.6637 7.69753 20.0854C11.773 18.921 17.2855 18.2279 23.2911 18.2279C29.2968 18.2279 34.8093 18.921 38.8847 20.0854C40.9087 20.6637 42.6938 21.3904 44.0195 22.2858ZM23.2911 20.2532C35.0359 20.2532 44.557 22.9735 44.557 26.3292V32.4051C44.557 35.7608 35.0359 38.4811 23.2911 38.4811C11.5463 38.4811 2.02532 35.7608 2.02532 32.4051V26.3292C2.02532 22.9735 11.5463 20.2532 23.2911 20.2532Z" fill="#2C3C4F"/>
<path d="M44.557 26.3291C44.557 29.6848 35.0359 32.4051 23.2912 32.4051C11.5464 32.4051 2.02533 29.6848 2.02533 26.3291C2.02533 22.9735 11.5464 20.2532 23.2912 20.2532C35.0359 20.2532 44.557 22.9735 44.557 26.3291Z" fill="#6A7788"/>
<path fill-rule="evenodd" clip-rule="evenodd" d="M38.8847 32.5729C34.8093 33.7373 29.2968 34.4304 23.2911 34.4304C17.2855 34.4304 11.773 33.7373 7.69753 32.5729C5.67358 31.9946 3.88845 31.268 2.5628 30.3725C1.30784 29.5248 0 28.1959 0 26.3292C0 24.4624 1.30784 23.1336 2.5628 22.2858C3.88845 21.3904 5.67358 20.6637 7.69753 20.0854C11.773 18.921 17.2855 18.2279 23.2911 18.2279C29.2968 18.2279 34.8093 18.921 38.8847 20.0854C40.9087 20.6637 42.6938 21.3904 44.0195 22.2858C45.2744 23.1336 46.5823 24.4624 46.5823 26.3292C46.5823 28.1959 45.2744 29.5248 44.0195 30.3725C42.6938 31.268 40.9087 31.9946 38.8847 32.5729ZM23.2911 32.4051C35.0359 32.4051 44.557 29.6848 44.557 26.3292C44.557 22.9735 35.0359 20.2532 23.2911 20.2532C11.5463 20.2532 2.02532 22.9735 2.02532 26.3292C2.02532 29.6848 11.5463 32.4051 23.2911 32.4051Z" fill="#2C3C4F"/>
<path fill-rule="evenodd" clip-rule="evenodd" d="M7.08859 30.3798C7.64786 30.3798 8.10124 30.8331 8.10124 31.3924V36.962C8.10124 37.5213 7.64786 37.9747 7.08859 37.9747C6.52931 37.9747 6.07593 37.5213 6.07593 36.962V31.3924C6.07593 30.8331 6.52931 30.3798 7.08859 30.3798Z" fill="#2C3C4F"/>
<path fill-rule="evenodd" clip-rule="evenodd" d="M39.4937 30.3798C40.053 30.3798 40.5063 30.8331 40.5063 31.3924V36.962C40.5063 37.5213 40.053 37.9747 39.4937 37.9747C38.9344 37.9747 38.481 37.5213 38.481 36.962V31.3924C38.481 30.8331 38.9344 30.3798 39.4937 30.3798Z" fill="#2C3C4F"/>
<path fill-rule="evenodd" clip-rule="evenodd" d="M15.1899 32.4052C15.7492 32.4052 16.2026 32.8585 16.2026 33.4178V37.9748C16.2026 38.534 15.7492 38.9874 15.1899 38.9874C14.6306 38.9874 14.1772 38.534 14.1772 37.9748V33.4178C14.1772 32.8585 14.6306 32.4052 15.1899 32.4052Z" fill="#2C3C4F"/>
<path fill-rule="evenodd" clip-rule="evenodd" d="M32.4051 32.4052C32.9643 32.4052 33.4177 32.8585 33.4177 33.4178V37.9748C33.4177 38.534 32.9643 38.9874 32.4051 38.9874C31.8458 38.9874 31.3924 38.534 31.3924 37.9748V33.4178C31.3924 32.8585 31.8458 32.4052 32.4051 32.4052Z" fill="#2C3C4F"/>
<path fill-rule="evenodd" clip-rule="evenodd" d="M24.3038 32.4052C24.8631 32.4052 25.3165 32.8585 25.3165 33.4178V37.9748C25.3165 38.534 24.8631 38.9874 24.3038 38.9874C23.7445 38.9874 23.2911 38.534 23.2911 37.9748V33.4178C23.2911 32.8585 23.7445 32.4052 24.3038 32.4052Z" fill="#2C3C4F"/>
<path d="M53.6709 17.2151C53.6709 13.8595 44.1499 11.1392 32.4051 11.1392C20.6603 11.1392 11.1393 13.8595 11.1393 17.2151V23.2911C11.1393 26.6467 20.6603 29.367 32.4051 29.367C44.1499 29.367 53.6709 26.6467 53.6709 23.2911V17.2151Z" fill="#FF934A"/>
<path fill-rule="evenodd" clip-rule="evenodd" d="M53.1334 13.1718C54.3884 14.0196 55.6962 15.3484 55.6962 17.2152V23.2911C55.6962 25.1579 54.3884 26.4867 53.1334 27.3344C51.8078 28.2299 50.0226 28.9566 47.9987 29.5348C43.9232 30.6993 38.4107 31.3924 32.4051 31.3924C26.3995 31.3924 20.887 30.6993 16.8115 29.5348C14.7875 28.9566 13.0024 28.2299 11.6768 27.3344C10.4218 26.4867 9.11395 25.1579 9.11395 23.2911V17.2152C9.11395 15.3484 10.4218 14.0196 11.6768 13.1718C13.0024 12.2764 14.7875 11.5497 16.8115 10.9714C20.887 9.807 26.3995 9.11389 32.4051 9.11389C38.4107 9.11389 43.9232 9.807 47.9987 10.9714C50.0226 11.5497 51.8078 12.2764 53.1334 13.1718ZM32.4051 11.1392C44.1499 11.1392 53.6709 13.8595 53.6709 17.2152V23.2911C53.6709 26.6468 44.1499 29.3671 32.4051 29.3671C20.6603 29.3671 11.1393 26.6468 11.1393 23.2911V17.2152C11.1393 13.8595 20.6603 11.1392 32.4051 11.1392Z" fill="#2C3C4F"/>
<path d="M53.6709 17.2151C53.6709 20.5708 44.1499 23.2911 32.4051 23.2911C20.6603 23.2911 11.1393 20.5708 11.1393 17.2151C11.1393 13.8595 20.6603 11.1392 32.4051 11.1392C44.1499 11.1392 53.6709 13.8595 53.6709 17.2151Z" fill="#6A7788"/>
<path fill-rule="evenodd" clip-rule="evenodd" d="M47.9987 23.4589C43.9232 24.6233 38.4107 25.3164 32.4051 25.3164C26.3995 25.3164 20.887 24.6233 16.8115 23.4589C14.7875 22.8806 13.0024 22.154 11.6768 21.2585C10.4218 20.4107 9.11395 19.0819 9.11395 17.2152C9.11395 15.3484 10.4218 14.0196 11.6768 13.1718C13.0024 12.2764 14.7875 11.5497 16.8115 10.9714C20.887 9.807 26.3995 9.11389 32.4051 9.11389C38.4107 9.11389 43.9232 9.807 47.9987 10.9714C50.0226 11.5497 51.8078 12.2764 53.1334 13.1718C54.3884 14.0196 55.6962 15.3484 55.6962 17.2152C55.6962 19.0819 54.3884 20.4107 53.1334 21.2585C51.8078 22.154 50.0226 22.8806 47.9987 23.4589ZM32.4051 23.2911C44.1499 23.2911 53.6709 20.5708 53.6709 17.2152C53.6709 13.8595 44.1499 11.1392 32.4051 11.1392C20.6603 11.1392 11.1393 13.8595 11.1393 17.2152C11.1393 20.5708 20.6603 23.2911 32.4051 23.2911Z" fill="#2C3C4F"/>
<path fill-rule="evenodd" clip-rule="evenodd" d="M16.2025 21.2657C16.7618 21.2657 17.2152 21.7191 17.2152 22.2784V27.848C17.2152 28.4073 16.7618 28.8607 16.2025 28.8607C15.6433 28.8607 15.1899 28.4073 15.1899 27.848V22.2784C15.1899 21.7191 15.6433 21.2657 16.2025 21.2657Z" fill="#2C3C4F"/>
<path fill-rule="evenodd" clip-rule="evenodd" d="M48.6076 21.2657C49.1669 21.2657 49.6203 21.7191 49.6203 22.2784V27.848C49.6203 28.4073 49.1669 28.8607 48.6076 28.8607C48.0484 28.8607 47.595 28.4073 47.595 27.848V22.2784C47.595 21.7191 48.0484 21.2657 48.6076 21.2657Z" fill="#2C3C4F"/>
<path fill-rule="evenodd" clip-rule="evenodd" d="M24.3038 23.2911C24.8631 23.2911 25.3165 23.7445 25.3165 24.3038V28.8608C25.3165 29.42 24.8631 29.8734 24.3038 29.8734C23.7445 29.8734 23.2911 29.42 23.2911 28.8608V24.3038C23.2911 23.7445 23.7445 23.2911 24.3038 23.2911Z" fill="#2C3C4F"/>
<path fill-rule="evenodd" clip-rule="evenodd" d="M41.519 23.2911C42.0783 23.2911 42.5317 23.7445 42.5317 24.3038V28.8608C42.5317 29.42 42.0783 29.8734 41.519 29.8734C40.9597 29.8734 40.5063 29.42 40.5063 28.8608V24.3038C40.5063 23.7445 40.9597 23.2911 41.519 23.2911Z" fill="#2C3C4F"/>
<path fill-rule="evenodd" clip-rule="evenodd" d="M33.4177 23.2911C33.977 23.2911 34.4304 23.7445 34.4304 24.3038V28.8608C34.4304 29.42 33.977 29.8734 33.4177 29.8734C32.8585 29.8734 32.4051 29.42 32.4051 28.8608V24.3038C32.4051 23.7445 32.8585 23.2911 33.4177 23.2911Z" fill="#2C3C4F"/>
<path d="M47.5949 8.10122C47.5949 4.74556 38.0739 2.02527 26.3291 2.02527C14.5843 2.02527 5.06329 4.74556 5.06329 8.10122V14.1772C5.06329 17.5328 14.5843 20.2531 26.3291 20.2531C38.0739 20.2531 47.5949 17.5328 47.5949 14.1772V8.10122Z" fill="#FF934A"/>
<path fill-rule="evenodd" clip-rule="evenodd" d="M47.0574 4.05794C48.3124 4.90567 49.6202 6.23451 49.6202 8.10127V14.1772C49.6202 16.044 48.3124 17.3728 47.0574 18.2205C45.7318 19.116 43.9467 19.8427 41.9227 20.4209C37.8472 21.5854 32.3347 22.2785 26.3291 22.2785C20.3235 22.2785 14.811 21.5854 10.7355 20.4209C8.71154 19.8427 6.92641 19.116 5.60076 18.2205C4.3458 17.3728 3.03796 16.044 3.03796 14.1772V8.10127C3.03796 6.2345 4.3458 4.90567 5.60076 4.05794C6.92641 3.16246 8.71154 2.4358 10.7355 1.85753C14.811 0.693109 20.3235 0 26.3291 0C32.3347 0 37.8472 0.693109 41.9227 1.85753C43.9467 2.4358 45.7318 3.16246 47.0574 4.05794ZM26.3291 2.02532C38.0739 2.02532 47.5949 4.74561 47.5949 8.10127V14.1772C47.5949 17.5329 38.0739 20.2532 26.3291 20.2532C14.5843 20.2532 5.06328 17.5329 5.06328 14.1772V8.10127C5.06328 4.74561 14.5843 2.02532 26.3291 2.02532Z" fill="#2C3C4F"/>
<path d="M47.5949 8.10122C47.5949 11.4569 38.0739 14.1772 26.3291 14.1772C14.5843 14.1772 5.06329 11.4569 5.06329 8.10122C5.06329 4.74556 14.5843 2.02527 26.3291 2.02527C38.0739 2.02527 47.5949 4.74556 47.5949 8.10122Z" fill="#6A7788"/>
<path fill-rule="evenodd" clip-rule="evenodd" d="M41.9227 14.345C37.8472 15.5094 32.3347 16.2025 26.3291 16.2025C20.3235 16.2025 14.811 15.5094 10.7355 14.345C8.71154 13.7667 6.92641 13.0401 5.60076 12.1446C4.3458 11.2969 3.03796 9.96803 3.03796 8.10127C3.03796 6.2345 4.3458 4.90567 5.60076 4.05794C6.92641 3.16246 8.71154 2.4358 10.7355 1.85753C14.811 0.693109 20.3235 0 26.3291 0C32.3347 0 37.8472 0.693109 41.9227 1.85753C43.9467 2.4358 45.7318 3.16246 47.0574 4.05794C48.3124 4.90567 49.6202 6.2345 49.6202 8.10127C49.6202 9.96803 48.3124 11.2969 47.0574 12.1446C45.7318 13.0401 43.9467 13.7667 41.9227 14.345ZM26.3291 14.1772C38.0739 14.1772 47.5949 11.4569 47.5949 8.10127C47.5949 4.74561 38.0739 2.02532 26.3291 2.02532C14.5843 2.02532 5.06328 4.74561 5.06328 8.10127C5.06328 11.4569 14.5843 14.1772 26.3291 14.1772Z" fill="#2C3C4F"/>
<path d="M38.481 7.59496C38.481 9.55243 33.0404 11.1393 26.3291 11.1393C19.6178 11.1393 14.1772 9.55243 14.1772 7.59496C14.1772 5.6375 19.6178 4.05066 26.3291 4.05066C33.0404 4.05066 38.481 5.6375 38.481 7.59496Z" fill="#7B7AFF"/>
<path fill-rule="evenodd" clip-rule="evenodd" d="M10.1265 12.1519C10.6858 12.1519 11.1392 12.6052 11.1392 13.1645V18.7341C11.1392 19.2934 10.6858 19.7468 10.1265 19.7468C9.56727 19.7468 9.11389 19.2934 9.11389 18.7341V13.1645C9.11389 12.6052 9.56727 12.1519 10.1265 12.1519Z" fill="#2C3C4F"/>
<path fill-rule="evenodd" clip-rule="evenodd" d="M42.5316 12.1519C43.0909 12.1519 43.5443 12.6052 43.5443 13.1645V18.7341C43.5443 19.2934 43.0909 19.7468 42.5316 19.7468C41.9724 19.7468 41.519 19.2934 41.519 18.7341V13.1645C41.519 12.6052 41.9724 12.1519 42.5316 12.1519Z" fill="#2C3C4F"/>
<path fill-rule="evenodd" clip-rule="evenodd" d="M18.2278 14.1772C18.7871 14.1772 19.2405 14.6306 19.2405 15.1899V19.7469C19.2405 20.3061 18.7871 20.7595 18.2278 20.7595C17.6685 20.7595 17.2151 20.3061 17.2151 19.7469V15.1899C17.2151 14.6306 17.6685 14.1772 18.2278 14.1772Z" fill="#2C3C4F"/>
<path fill-rule="evenodd" clip-rule="evenodd" d="M35.443 14.1772C36.0023 14.1772 36.4557 14.6306 36.4557 15.1899V19.7469C36.4557 20.3061 36.0023 20.7595 35.443 20.7595C34.8837 20.7595 34.4304 20.3061 34.4304 19.7469V15.1899C34.4304 14.6306 34.8837 14.1772 35.443 14.1772Z" fill="#2C3C4F"/>
<path fill-rule="evenodd" clip-rule="evenodd" d="M27.3418 14.1772C27.901 14.1772 28.3544 14.6306 28.3544 15.1899V19.7469C28.3544 20.3061 27.901 20.7595 27.3418 20.7595C26.7825 20.7595 26.3291 20.3061 26.3291 19.7469V15.1899C26.3291 14.6306 26.7825 14.1772 27.3418 14.1772Z" fill="#2C3C4F"/>
<path fill-rule="evenodd" clip-rule="evenodd" d="M6.07595 7.08862C6.63523 7.08862 7.08861 7.54201 7.08861 8.10128C7.08861 8.24667 7.21759 8.64904 8.12293 9.21232C8.97432 9.74204 10.2736 10.2561 11.9691 10.7023C15.345 11.5906 20.0644 12.1519 25.3165 12.1519C25.8757 12.1519 26.3291 12.6053 26.3291 13.1646C26.3291 13.7238 25.8757 14.1772 25.3165 14.1772C19.9423 14.1772 15.0414 13.605 11.4536 12.6609C9.66725 12.1908 8.14886 11.6138 7.05301 10.932C6.0111 10.2837 5.06329 9.35408 5.06329 8.10128C5.06329 7.54201 5.51668 7.08862 6.07595 7.08862Z" fill="#7B7AFF"/>
</g>
<defs>
<clipPath id="clip0_113_228">
<rect width="80" height="59.7468" fill="white"/>
</clipPath>
</defs>
</svg>
