<svg width="82" height="76" viewBox="0 0 82 76" fill="none" xmlns="http://www.w3.org/2000/svg">
<path d="M21.0747 15.963C20.926 11.306 20.0138 6.91508 19.2772 4.45978C19.0416 3.6744 19.3334 2.82625 20.0023 2.35201C20.6712 1.87776 21.5681 1.88318 22.2312 2.36546C22.3596 2.45882 22.6598 2.62791 23.2871 2.97132L23.3675 3.01533C25.6094 4.2423 30.2113 6.76079 33.0395 11.4163C35.8513 10.8793 38.8814 10.5983 42.1255 10.5983C53.2827 10.5983 61.9135 13.9275 67.7677 19.5224C73.6225 25.1177 76.5188 32.8081 76.5188 41.1702C76.5188 49.1135 73.1164 56.3091 67.6071 61.708L70.3253 64.2971C72.2356 66.1166 72.3093 69.1402 70.4897 71.0505C70.2005 71.3541 69.881 71.6114 69.5402 71.822C69.1141 73.1094 68.232 74.2515 66.9651 74.9829C64.2234 76.5658 60.7177 75.6265 59.1347 72.8848L56.7945 68.8314C52.3388 70.7005 47.3645 71.742 42.1255 71.742C38.7009 71.742 35.5143 71.4289 32.5716 70.8319C32.5473 73.4492 30.418 75.5634 27.795 75.5634C27.2407 75.5634 26.7085 75.469 26.2135 75.2954C24.6142 75.9729 22.7274 75.9182 21.1074 74.9829C18.3657 73.4 17.4263 69.8942 19.0092 67.1525L19.9026 65.6052C14.5306 61.8791 10.9203 56.6959 9.10569 50.7239H7.73222C4.5664 50.7239 2 48.1575 2 44.9916V37.3487C2 34.1829 4.5664 31.6165 7.73222 31.6165H9.10569C11.05 25.2178 15.0549 19.7271 21.0747 15.963Z" fill="#6A7788"/>
<path d="M67.7865 63.0457L58.1014 53.821C56.5553 52.3484 54.1082 52.408 52.6356 53.9541C51.1629 55.5002 51.2225 57.9473 52.7686 59.4199L62.4536 68.6447C63.9997 70.1173 66.4469 70.0577 67.9195 68.5116C69.3921 66.9655 69.3326 64.5184 67.7865 63.0457Z" fill="#FF934A" stroke="#2C3C4F" stroke-width="2" stroke-linecap="round" stroke-linejoin="round"/>
<path d="M29.7503 68.8758V55.5006C29.7503 53.3654 28.0194 51.6345 25.8842 51.6345C23.749 51.6345 22.0181 53.3654 22.0181 55.5006V68.8758C22.0181 71.011 23.749 72.7419 25.8842 72.7419C28.0194 72.7419 29.7503 71.011 29.7503 68.8758Z" fill="#FF934A" stroke="#2C3C4F" stroke-width="2" stroke-linecap="round" stroke-linejoin="round"/>
<mask id="path-4-outside-1_111_256" maskUnits="userSpaceOnUse" x="0" y="0" width="75" height="74" fill="black">
<rect fill="white" width="75" height="74"/>
<path fill-rule="evenodd" clip-rule="evenodd" d="M30.135 11.6652C27.7059 6.70431 22.9025 4.07449 20.4588 2.73658C19.8908 2.42561 19.4502 2.18443 19.1966 2C20.0338 4.79036 21.0665 9.86266 21.0951 15.1222C14.5336 18.8875 10.3733 24.7326 8.64782 31.6164H6C3.79086 31.6164 2 33.4073 2 35.6164V42.9024C2 45.1115 3.79086 46.9024 6 46.9024H8.64782C10.3254 53.595 14.3045 59.3059 20.554 63.0781L18.7533 66.1971C17.698 68.0249 18.3242 70.3621 20.152 71.4174C21.9798 72.4726 24.317 71.8464 25.3722 70.0186L27.5896 66.178C31.2868 67.3052 35.4963 67.9205 40.2148 67.9205C45.8121 67.9205 51.0787 66.6713 55.6762 64.4716L58.8788 70.0187C59.934 71.8465 62.2712 72.4727 64.099 71.4175C65.9268 70.3622 66.553 68.025 65.4977 66.1972L62.1499 60.3987C68.6325 55.1588 72.6973 47.6279 72.6973 39.2594C72.6973 23.4303 61.7636 10.5983 40.2148 10.5983C36.5468 10.5983 33.1863 10.9701 30.135 11.6652Z"/>
</mask>
<path fill-rule="evenodd" clip-rule="evenodd" d="M30.135 11.6652C27.7059 6.70431 22.9025 4.07449 20.4588 2.73658C19.8908 2.42561 19.4502 2.18443 19.1966 2C20.0338 4.79036 21.0665 9.86266 21.0951 15.1222C14.5336 18.8875 10.3733 24.7326 8.64782 31.6164H6C3.79086 31.6164 2 33.4073 2 35.6164V42.9024C2 45.1115 3.79086 46.9024 6 46.9024H8.64782C10.3254 53.595 14.3045 59.3059 20.554 63.0781L18.7533 66.1971C17.698 68.0249 18.3242 70.3621 20.152 71.4174C21.9798 72.4726 24.317 71.8464 25.3722 70.0186L27.5896 66.178C31.2868 67.3052 35.4963 67.9205 40.2148 67.9205C45.8121 67.9205 51.0787 66.6713 55.6762 64.4716L58.8788 70.0187C59.934 71.8465 62.2712 72.4727 64.099 71.4175C65.9268 70.3622 66.553 68.025 65.4977 66.1972L62.1499 60.3987C68.6325 55.1588 72.6973 47.6279 72.6973 39.2594C72.6973 23.4303 61.7636 10.5983 40.2148 10.5983C36.5468 10.5983 33.1863 10.9701 30.135 11.6652Z" fill="#6A7788"/>
<path d="M30.135 11.6652L28.3388 12.5447C28.7468 13.3781 29.6745 13.8214 30.5792 13.6153L30.135 11.6652ZM20.4588 2.73658L21.4192 0.982285L21.4192 0.982284L20.4588 2.73658ZM19.1966 2L20.373 0.382529C19.6789 -0.122282 18.7401 -0.127947 18.0399 0.368449C17.3398 0.864846 17.0344 1.75262 17.281 2.5747L19.1966 2ZM21.0951 15.1222L22.0905 16.8569C22.7153 16.4984 23.099 15.8316 23.095 15.1114L21.0951 15.1222ZM8.64782 31.6164V33.6164C9.56509 33.6164 10.3648 32.9925 10.5878 32.1027L8.64782 31.6164ZM8.64782 46.9024L10.5878 46.4161C10.3648 45.5263 9.56509 44.9024 8.64782 44.9024V46.9024ZM20.554 63.0781L22.2861 64.0781C22.8308 63.1347 22.5202 61.9288 21.5875 61.3659L20.554 63.0781ZM18.7533 66.1971L20.4853 67.1971L20.4853 67.1971L18.7533 66.1971ZM20.152 71.4174L19.152 73.1494L19.152 73.1494L20.152 71.4174ZM25.3722 70.0186L27.1043 71.0186L27.1043 71.0186L25.3722 70.0186ZM27.5896 66.178L28.1729 64.2649C27.2827 63.9935 26.3229 64.372 25.8576 65.178L27.5896 66.178ZM55.6762 64.4716L57.4082 63.4716C56.8859 62.567 55.7553 62.2167 54.813 62.6675L55.6762 64.4716ZM58.8788 70.0187L57.1467 71.0187L57.1467 71.0187L58.8788 70.0187ZM65.4977 66.1972L63.7657 67.1972L63.7657 67.1972L65.4977 66.1972ZM62.1499 60.3987L60.8927 58.8432C60.1271 59.4621 59.9257 60.5461 60.4179 61.3987L62.1499 60.3987ZM31.9312 10.7857C29.1906 5.18846 23.8262 2.30008 21.4192 0.982285L19.4983 4.49087C21.9788 5.84889 26.2213 8.22015 28.3388 12.5447L31.9312 10.7857ZM21.4192 0.982284C20.7892 0.637355 20.4955 0.471634 20.373 0.382529L18.0203 3.61747C18.405 3.89723 18.9923 4.21386 19.4983 4.49087L21.4192 0.982284ZM17.281 2.5747C18.0723 5.21235 19.0677 10.0937 19.0951 15.1331L23.095 15.1114C23.0652 9.63159 21.9952 4.36837 21.1123 1.4253L17.281 2.5747ZM20.0996 13.3876C13.0458 17.4354 8.55947 23.7431 6.70783 31.1302L10.5878 32.1027C12.1871 25.7222 16.0215 20.3396 22.0905 16.8569L20.0996 13.3876ZM8.64782 29.6164H6V33.6164H8.64782V29.6164ZM6 29.6164C2.68629 29.6164 0 32.3027 0 35.6164H4C4 34.5119 4.89543 33.6164 6 33.6164V29.6164ZM0 35.6164V42.9024H4V35.6164H0ZM0 42.9024C0 46.2161 2.68629 48.9024 6 48.9024V44.9024C4.89543 44.9024 4 44.0069 4 42.9024H0ZM6 48.9024H8.64782V44.9024H6V48.9024ZM6.70783 47.3886C8.50757 54.5686 12.7972 60.7321 19.5205 64.7904L21.5875 61.3659C15.8117 57.8796 12.1432 52.6214 10.5878 46.4161L6.70783 47.3886ZM18.822 62.0781L17.0212 65.1971L20.4853 67.1971L22.2861 64.0781L18.822 62.0781ZM17.0212 65.1971C15.4136 67.9815 16.3676 71.5418 19.152 73.1494L21.152 69.6853C20.2808 69.1823 19.9823 68.0683 20.4853 67.1971L17.0212 65.1971ZM19.152 73.1494C21.9364 74.757 25.4967 73.803 27.1043 71.0186L23.6402 69.0186C23.1372 69.8898 22.0232 70.1883 21.152 69.6853L19.152 73.1494ZM27.1043 71.0186L29.3217 67.178L25.8576 65.178L23.6402 69.0186L27.1043 71.0186ZM27.0063 68.0911C30.9147 69.2827 35.3232 69.9205 40.2148 69.9205V65.9205C35.6695 65.9205 31.659 65.3278 28.1729 64.2649L27.0063 68.0911ZM40.2148 69.9205C46.1102 69.9205 51.6718 68.6047 56.5393 66.2758L54.813 62.6675C50.4856 64.7379 45.514 65.9205 40.2148 65.9205V69.9205ZM53.9441 65.4716L57.1467 71.0187L60.6108 69.0187L57.4082 63.4716L53.9441 65.4716ZM57.1467 71.0187C58.7543 73.8031 62.3146 74.7571 65.099 73.1495L63.099 69.6854C62.2278 70.1884 61.1138 69.8899 60.6108 69.0187L57.1467 71.0187ZM65.099 73.1495C67.8834 71.542 68.8374 67.9816 67.2298 65.1972L63.7657 67.1972C64.2687 68.0684 63.9702 69.1824 63.099 69.6854L65.099 73.1495ZM67.2298 65.1972L63.882 59.3987L60.4179 61.3987L63.7657 67.1972L67.2298 65.1972ZM63.4072 61.9541C70.2985 56.3838 74.6973 48.3063 74.6973 39.2594H70.6973C70.6973 46.9496 66.9665 53.9338 60.8927 58.8432L63.4072 61.9541ZM74.6973 39.2594C74.6973 30.8764 71.7934 23.1616 65.9187 17.5471C60.0445 11.9331 51.3899 8.59832 40.2148 8.59832V12.5983C50.5885 12.5983 58.1751 15.6795 63.155 20.4388C68.1344 25.1976 70.6973 31.8133 70.6973 39.2594H74.6973ZM40.2148 8.59832C36.412 8.59832 32.9015 8.98377 29.6908 9.71517L30.5792 13.6153C33.4711 12.9565 36.6815 12.5983 40.2148 12.5983V8.59832Z" fill="#2C3C4F" mask="url(#path-4-outside-1_111_256)"/>
<path fill-rule="evenodd" clip-rule="evenodd" d="M26.016 6.43689C26.8521 7.40629 27.6133 8.50664 28.2243 9.75447C28.4513 9.70276 28.68 9.65283 28.9104 9.60472C28.0451 8.37934 27.0435 7.33147 26.016 6.43689ZM63.9695 18.4668C68.5041 23.5097 70.7866 30.1164 70.7866 37.3487C70.7866 45.7172 66.7218 53.248 60.2392 58.4879L63.587 64.2864C64.6423 66.1142 64.016 68.4514 62.1882 69.5067C61.0714 70.1515 59.7643 70.1685 58.6758 69.6671L58.8787 70.0186C59.934 71.8464 62.2712 72.4727 64.099 71.4174C65.9268 70.3621 66.553 68.025 65.4977 66.1972L62.1499 60.3986C68.6325 55.1588 72.6973 47.6279 72.6973 39.2594C72.6973 31.0737 69.7733 23.6894 63.9695 18.4668ZM55.0398 64.7681L53.7654 62.5609C49.168 64.7605 43.9013 66.0097 38.304 66.0097C33.5856 66.0097 29.3761 65.3945 25.6789 64.2673L23.4615 68.1079C22.4703 69.8247 20.3482 70.4814 18.5795 69.6804C18.8971 70.3855 19.4311 71.0012 20.152 71.4174C21.9798 72.4727 24.317 71.8464 25.3722 70.0186L27.5896 66.178C31.2868 67.3052 35.4963 67.9205 40.2148 67.9205C45.5555 67.9205 50.5952 66.7832 55.0398 64.7681ZM18.3808 61.622L18.6433 61.1674C17.1486 60.2652 15.7838 59.2521 14.5493 58.1413C15.6853 59.4046 16.9626 60.5697 18.3808 61.622ZM7.28748 46.9023C7.08256 46.2752 6.89907 45.638 6.73706 44.9916H3.91072C3.34997 44.9916 2.81744 44.8708 2.33771 44.6539C2.93733 45.9798 4.27166 46.9023 5.82146 46.9023H7.28748Z" fill="#FF934A"/>
<path d="M32.5786 14.8722C39.6702 13.7132 43.5695 14.0245 50.3876 16.2936" stroke="#FF934A" stroke-width="4" stroke-linecap="round" stroke-linejoin="round"/>
<path fill-rule="evenodd" clip-rule="evenodd" d="M35.3911 51.6639C47.1054 51.2703 56.456 43.3008 56.456 33.5271C56.456 23.5021 49.0597 15.3751 34.4825 15.3751C19.9054 15.3751 12.509 23.5021 12.509 33.5271C12.509 39.789 15.3947 45.3102 21.1134 48.5731C22.2834 46.4216 24.5173 44.9916 27.795 44.9916C32.4703 44.9916 35.022 47.9011 35.3911 51.6639Z" fill="#6A7788"/>
<path d="M53.5899 34.4825C53.5899 40.8141 48.4571 45.9469 42.1255 45.9469C34.52 45.9469 30.6611 40.8141 30.6611 34.4825C30.6611 28.1509 34.52 23.0181 42.1255 23.0181C49.731 23.0181 53.5899 28.1509 53.5899 34.4825Z" fill="#FF934A"/>
<path d="M28.7503 24.4511C28.7503 26.8255 26.3978 28.7503 23.4958 28.7503C20.01 28.7503 18.2413 26.8255 18.2413 24.4511C18.2413 22.0768 20.01 20.152 23.4958 20.152C26.9816 20.152 28.7503 22.0768 28.7503 24.4511Z" fill="#FF934A"/>
<path d="M22.0627 18.2413C19.788 19.004 14.6927 22.5556 12.509 30.6611" stroke="#57677B" stroke-width="2" stroke-linecap="round" stroke-linejoin="round"/>
<path d="M74.0338 42.5072C76.3768 42.0436 79.9297 38.9058 78.1734 33.8969C75.9381 27.522 69.28 30.7873 70.3977 33.9747C71.9783 38.4825 81.1677 36.7246 79.2183 26.8729C78.0774 21.1074 74.0338 20.6297 72.2196 21.1074" stroke="#2C3C4F" stroke-width="2" stroke-linecap="round" stroke-linejoin="round"/>
<path d="M19.1967 26.8396C20.2389 28.2815 23.2266 30.3001 26.8396 26.8396" stroke="#2C3C4F" stroke-width="2" stroke-linecap="round" stroke-linejoin="round"/>
<path d="M23.0181 5.82153C24.4512 7.25459 26.8396 9.64301 27.795 11.5537" stroke="#57677B" stroke-width="2" stroke-linecap="round" stroke-linejoin="round"/>
<path d="M19.1967 52.6346C21.7761 52.6346 24.7856 52.6346 27.795 48.8131" stroke="#2C3C4F" stroke-width="2" stroke-linecap="round" stroke-linejoin="round"/>
<circle cx="56.9337" cy="51.2015" r="1.43305" fill="#FF934A"/>
<circle cx="61.7106" cy="49.2907" r="1.43305" fill="#FF934A"/>
<circle cx="58.3668" cy="46.9024" r="0.955369" fill="#FF934A"/>
<circle cx="65.0544" cy="44.9916" r="0.955369" fill="#FF934A"/>
<circle cx="66.9651" cy="40.2148" r="0.955369" fill="#FF934A"/>
<circle cx="66.0098" cy="34.4826" r="0.955369" fill="#FF934A"/>
<circle cx="64.099" cy="42.1255" r="0.955369" fill="#FF934A"/>
<circle cx="59.3221" cy="43.0809" r="0.955369" fill="#FF934A"/>
<circle cx="65.0544" cy="48.813" r="0.955369" fill="#FF934A"/>
<circle cx="64.099" cy="52.6346" r="0.955369" fill="#FF934A"/>
<circle cx="59.3221" cy="55.5007" r="0.955369" fill="#FF934A"/>
<circle cx="58.3668" cy="59.3222" r="0.955369" fill="#FF934A"/>
<circle cx="52.6346" cy="59.3222" r="0.955369" fill="#FF934A"/>
<circle cx="48.8131" cy="56.4561" r="0.955369" fill="#FF934A"/>
<circle cx="56.456" cy="56.4561" r="0.955369" fill="#FF934A"/>
<circle cx="51.6792" cy="52.6346" r="0.955369" fill="#FF934A"/>
<circle cx="69.3535" cy="42.6032" r="1.43305" fill="#FF934A"/>
<path d="M46.9024 28.1134C45.8306 27.3086 44.544 26.8396 43.1604 26.8396C39.423 26.8396 36.3933 30.2615 36.3933 34.4826C36.3933 38.7036 39.423 42.1255 43.1604 42.1255C44.544 42.1255 45.8306 41.6565 46.9024 40.8517" stroke="#2C3C4F" stroke-width="3" stroke-linecap="round" stroke-linejoin="round"/>
<path d="M33.5272 36.3933H41.1701" stroke="#2C3C4F" stroke-width="2" stroke-linecap="round" stroke-linejoin="round"/>
<path d="M33.5272 32.5718H41.1701" stroke="#2C3C4F" stroke-width="2" stroke-linecap="round" stroke-linejoin="round"/>
</svg>
