<svg width="80" height="58" viewBox="0 0 80 58" fill="none" xmlns="http://www.w3.org/2000/svg">
<g clip-path="url(#clip0_111_306)">
<path d="M72.9848 2.05127H11.4463C8.04765 2.05127 5.29248 4.80644 5.29248 8.20511V51.282C5.29248 54.6807 8.04765 57.4359 11.4463 57.4359H72.9848C76.3835 57.4359 79.1386 54.6807 79.1386 51.282V8.20512C79.1386 4.80644 76.3835 2.05127 72.9848 2.05127Z" fill="#021024" fill-opacity="0.1"/>
<path d="M58.4615 53.3333C58.4615 52.2004 59.3799 51.282 60.5128 51.282H66.6667C67.7996 51.282 68.718 52.2004 68.718 53.3333V55.3845C68.718 56.5174 67.7996 57.4358 66.6667 57.4358H60.5128C59.3799 57.4358 58.4615 56.5174 58.4615 55.3845V53.3333Z" fill="#FF934A"/>
<path d="M11.282 53.3333C11.282 52.2004 12.2004 51.282 13.3333 51.282H19.4872C20.6201 51.282 21.5385 52.2004 21.5385 53.3333V55.3845C21.5385 56.5174 20.6201 57.4358 19.4872 57.4358H13.3333C12.2004 57.4358 11.282 56.5174 11.282 55.3845V53.3333Z" fill="#FF934A"/>
<path d="M5.29245 6.15383C5.29245 3.88805 7.12923 2.05127 9.39501 2.05127H70.9335C73.1993 2.05127 75.036 3.88805 75.036 6.15383V49.2308C75.036 51.4965 73.1993 53.3333 70.9335 53.3333H9.39501C7.12923 53.3333 5.29245 51.4965 5.29245 49.2308V6.15383Z" fill="#6A7788"/>
<path fill-rule="evenodd" clip-rule="evenodd" d="M9.39503 0H70.9335C74.3322 0 77.0873 2.75517 77.0873 6.15385V49.2308C77.0873 52.6294 74.3322 55.3846 70.9335 55.3846H9.39503C5.99635 55.3846 3.24118 52.6294 3.24118 49.2308V6.15384C3.24118 2.75517 5.99635 0 9.39503 0ZM9.39503 2.05128C7.12924 2.05128 5.29246 3.88806 5.29246 6.15384V49.2308C5.29246 51.4966 7.12924 53.3333 9.39503 53.3333H70.9335C73.1993 53.3333 75.036 51.4966 75.036 49.2308V6.15385C75.036 3.88806 73.1993 2.05128 70.9335 2.05128H9.39503Z" fill="#2C3C4F"/>
<path fill-rule="evenodd" clip-rule="evenodd" d="M5.29245 45.1282V49.2308C5.29245 51.4965 7.12923 53.3333 9.39501 53.3333H70.9335C73.1993 53.3333 75.036 51.4965 75.036 49.2308V6.15383C75.036 3.88805 73.1993 2.05127 70.9335 2.05127H66.8309V12.3077C66.8309 30.4339 52.1367 45.1282 34.0104 45.1282H5.29245Z" fill="#57677B"/>
<path d="M68.7179 48.2051C68.7179 48.7715 68.2587 49.2307 67.6923 49.2307C67.1259 49.2307 66.6667 48.7715 66.6667 48.2051C66.6667 47.6386 67.1259 47.1794 67.6923 47.1794C68.2587 47.1794 68.7179 47.6386 68.7179 48.2051Z" fill="#FF934A"/>
<path d="M73.2372 48.2051C73.2372 48.7715 72.778 49.2307 72.2116 49.2307C71.6451 49.2307 71.1859 48.7715 71.1859 48.2051C71.1859 47.6386 71.6451 47.1794 72.2116 47.1794C72.778 47.1794 73.2372 47.6386 73.2372 48.2051Z" fill="#FF934A"/>
<path d="M74.4872 40.7692C74.4872 41.3356 74.028 41.7948 73.4616 41.7948C72.8951 41.7948 72.4359 41.3356 72.4359 40.7692C72.4359 40.2027 72.8951 39.7435 73.4616 39.7435C74.028 39.7435 74.4872 40.2027 74.4872 40.7692Z" fill="#FF934A"/>
<path d="M72.8205 36.1538C72.8205 36.7203 72.3613 37.1795 71.7949 37.1795C71.2284 37.1795 70.7692 36.7203 70.7692 36.1538C70.7692 35.5874 71.2284 35.1282 71.7949 35.1282C72.3613 35.1282 72.8205 35.5874 72.8205 36.1538Z" fill="#FF934A"/>
<path d="M71.5064 41.282C71.5064 41.8484 71.0472 42.3076 70.4808 42.3076C69.9143 42.3076 69.4551 41.8484 69.4551 41.282C69.4551 40.7155 69.9143 40.2563 70.4808 40.2563C71.0472 40.2563 71.5064 40.7155 71.5064 41.282Z" fill="#FF934A"/>
<path d="M67.4679 44.1025C67.4679 44.669 67.0087 45.1282 66.4423 45.1282C65.8759 45.1282 65.4167 44.669 65.4167 44.1025C65.4167 43.5361 65.8759 43.0769 66.4423 43.0769C67.0087 43.0769 67.4679 43.5361 67.4679 44.1025Z" fill="#FF934A"/>
<path d="M66.0577 48.2051C66.0577 48.7715 65.5985 49.2307 65.0321 49.2307C64.4656 49.2307 64.0064 48.7715 64.0064 48.2051C64.0064 47.6386 64.4656 47.1794 65.0321 47.1794C65.5985 47.1794 66.0577 47.6386 66.0577 48.2051Z" fill="#FF934A"/>
<path d="M70.7692 51.0897C70.7692 51.6562 70.31 52.1154 69.7436 52.1154C69.1772 52.1154 68.718 51.6562 68.718 51.0897C68.718 50.5233 69.1772 50.0641 69.7436 50.0641C70.31 50.0641 70.7692 50.5233 70.7692 51.0897Z" fill="#FF934A"/>
<path d="M66.9071 50.8973C66.9071 51.4638 66.4479 51.923 65.8814 51.923C65.315 51.923 64.8558 51.4638 64.8558 50.8973C64.8558 50.3309 65.315 49.8717 65.8814 49.8717C66.4479 49.8717 66.9071 50.3309 66.9071 50.8973Z" fill="#FF934A"/>
<path d="M57.5481 50.8973C57.5481 51.4638 57.0889 51.923 56.5224 51.923C55.956 51.923 55.4968 51.4638 55.4968 50.8973C55.4968 50.3309 55.956 49.8717 56.5224 49.8717C57.0889 49.8717 57.5481 50.3309 57.5481 50.8973Z" fill="#FF934A"/>
<path d="M63.7981 46.4423C63.7981 47.0087 63.3389 47.4679 62.7724 47.4679C62.206 47.4679 61.7468 47.0087 61.7468 46.4423C61.7468 45.8758 62.206 45.4166 62.7724 45.4166C63.3389 45.4166 63.7981 45.8758 63.7981 46.4423Z" fill="#FF934A"/>
<path d="M71.7949 44.6154C71.7949 45.465 71.1061 46.1538 70.2564 46.1538C69.4067 46.1538 68.718 45.465 68.718 44.6154C68.718 43.7657 69.4067 43.0769 70.2564 43.0769C71.1061 43.0769 71.7949 43.7657 71.7949 44.6154Z" fill="#FF934A"/>
<path d="M63.0449 49.5513C63.0449 50.4009 62.3561 51.0897 61.5064 51.0897C60.6567 51.0897 59.968 50.4009 59.968 49.5513C59.968 48.7016 60.6567 48.0128 61.5064 48.0128C62.3561 48.0128 63.0449 48.7016 63.0449 49.5513Z" fill="#FF934A"/>
<path fill-rule="evenodd" clip-rule="evenodd" d="M5.1282 6.15383C5.1282 3.88805 6.96498 2.05127 9.23077 2.05127H48.2051C48.7716 2.05127 49.2308 2.51046 49.2308 3.07691C49.2308 3.64336 48.7716 4.10255 48.2051 4.10255H9.23077C8.09788 4.10255 7.17949 5.02094 7.17949 6.15383V9.23076C7.17949 9.7972 6.72029 10.2564 6.15385 10.2564C5.5874 10.2564 5.1282 9.7972 5.1282 9.23076V6.15383Z" fill="#7B7AFF"/>
<path d="M22.5641 14.3589C22.5641 17.1911 20.2681 19.4871 17.4359 19.4871C14.6037 19.4871 12.3077 17.1911 12.3077 14.3589C12.3077 11.5267 14.6037 9.23071 17.4359 9.23071C20.2681 9.23071 22.5641 11.5267 22.5641 14.3589Z" fill="#6A7788"/>
<path fill-rule="evenodd" clip-rule="evenodd" d="M17.4359 10.2564C15.1701 10.2564 13.3333 12.0931 13.3333 14.3589C13.3333 16.6247 15.1701 18.4615 17.4359 18.4615C19.7017 18.4615 21.5385 16.6247 21.5385 14.3589C21.5385 12.0931 19.7017 10.2564 17.4359 10.2564ZM11.282 14.3589C11.282 10.9602 14.0372 8.20508 17.4359 8.20508C20.8346 8.20508 23.5897 10.9602 23.5897 14.3589C23.5897 17.7576 20.8346 20.5128 17.4359 20.5128C14.0372 20.5128 11.282 17.7576 11.282 14.3589Z" fill="#FF934A"/>
<path d="M22.5641 28.7179C22.5641 31.5502 20.2681 33.8461 17.4359 33.8461C14.6037 33.8461 12.3077 31.5502 12.3077 28.7179C12.3077 25.8857 14.6037 23.5897 17.4359 23.5897C20.2681 23.5897 22.5641 25.8857 22.5641 28.7179Z" fill="#6A7788"/>
<path fill-rule="evenodd" clip-rule="evenodd" d="M17.4359 24.6154C15.1701 24.6154 13.3333 26.4521 13.3333 28.7179C13.3333 30.9837 15.1701 32.8205 17.4359 32.8205C19.7017 32.8205 21.5385 30.9837 21.5385 28.7179C21.5385 26.4521 19.7017 24.6154 17.4359 24.6154ZM11.282 28.7179C11.282 25.3193 14.0372 22.5641 17.4359 22.5641C20.8346 22.5641 23.5897 25.3193 23.5897 28.7179C23.5897 32.1166 20.8346 34.8718 17.4359 34.8718C14.0372 34.8718 11.282 32.1166 11.282 28.7179Z" fill="#FF934A"/>
<path d="M22.5641 43.0768C22.5641 45.909 20.2681 48.205 17.4359 48.205C14.6037 48.205 12.3077 45.909 12.3077 43.0768C12.3077 40.2446 14.6037 37.9486 17.4359 37.9486C20.2681 37.9486 22.5641 40.2446 22.5641 43.0768Z" fill="#6A7788"/>
<path fill-rule="evenodd" clip-rule="evenodd" d="M17.4359 38.9743C15.1701 38.9743 13.3333 40.811 13.3333 43.0768C13.3333 45.3426 15.1701 47.1794 17.4359 47.1794C19.7017 47.1794 21.5385 45.3426 21.5385 43.0768C21.5385 40.811 19.7017 38.9743 17.4359 38.9743ZM11.282 43.0768C11.282 39.6781 14.0372 36.923 17.4359 36.923C20.8346 36.923 23.5897 39.6781 23.5897 43.0768C23.5897 46.4755 20.8346 49.2307 17.4359 49.2307C14.0372 49.2307 11.282 46.4755 11.282 43.0768Z" fill="#FF934A"/>
<path d="M36.9231 14.3589C36.9231 17.1911 34.6271 19.4871 31.7949 19.4871C28.9626 19.4871 26.6667 17.1911 26.6667 14.3589C26.6667 11.5267 28.9626 9.23071 31.7949 9.23071C34.6271 9.23071 36.9231 11.5267 36.9231 14.3589Z" fill="#6A7788"/>
<path fill-rule="evenodd" clip-rule="evenodd" d="M31.7949 10.2564C29.5291 10.2564 27.6923 12.0931 27.6923 14.3589C27.6923 16.6247 29.5291 18.4615 31.7949 18.4615C34.0607 18.4615 35.8974 16.6247 35.8974 14.3589C35.8974 12.0931 34.0607 10.2564 31.7949 10.2564ZM25.641 14.3589C25.641 10.9602 28.3962 8.20508 31.7949 8.20508C35.1935 8.20508 37.9487 10.9602 37.9487 14.3589C37.9487 17.7576 35.1935 20.5128 31.7949 20.5128C28.3962 20.5128 25.641 17.7576 25.641 14.3589Z" fill="#FF934A"/>
<path d="M36.9231 28.7179C36.9231 31.5502 34.6271 33.8461 31.7949 33.8461C28.9626 33.8461 26.6667 31.5502 26.6667 28.7179C26.6667 25.8857 28.9626 23.5897 31.7949 23.5897C34.6271 23.5897 36.9231 25.8857 36.9231 28.7179Z" fill="#6A7788"/>
<path fill-rule="evenodd" clip-rule="evenodd" d="M31.7949 24.6154C29.5291 24.6154 27.6923 26.4521 27.6923 28.7179C27.6923 30.9837 29.5291 32.8205 31.7949 32.8205C34.0607 32.8205 35.8974 30.9837 35.8974 28.7179C35.8974 26.4521 34.0607 24.6154 31.7949 24.6154ZM25.641 28.7179C25.641 25.3193 28.3962 22.5641 31.7949 22.5641C35.1935 22.5641 37.9487 25.3193 37.9487 28.7179C37.9487 32.1166 35.1935 34.8718 31.7949 34.8718C28.3962 34.8718 25.641 32.1166 25.641 28.7179Z" fill="#FF934A"/>
<path d="M36.9231 43.0768C36.9231 45.909 34.6271 48.205 31.7949 48.205C28.9626 48.205 26.6667 45.909 26.6667 43.0768C26.6667 40.2446 28.9626 37.9486 31.7949 37.9486C34.6271 37.9486 36.9231 40.2446 36.9231 43.0768Z" fill="#6A7788"/>
<path fill-rule="evenodd" clip-rule="evenodd" d="M31.7949 38.9743C29.5291 38.9743 27.6923 40.811 27.6923 43.0768C27.6923 45.3426 29.5291 47.1794 31.7949 47.1794C34.0607 47.1794 35.8974 45.3426 35.8974 43.0768C35.8974 40.811 34.0607 38.9743 31.7949 38.9743ZM25.641 43.0768C25.641 39.6781 28.3962 36.923 31.7949 36.923C35.1935 36.923 37.9487 39.6781 37.9487 43.0768C37.9487 46.4755 35.1935 49.2307 31.7949 49.2307C28.3962 49.2307 25.641 46.4755 25.641 43.0768Z" fill="#FF934A"/>
<path d="M51.282 14.3589C51.282 17.1911 48.9861 19.4871 46.1538 19.4871C43.3216 19.4871 41.0256 17.1911 41.0256 14.3589C41.0256 11.5267 43.3216 9.23071 46.1538 9.23071C48.9861 9.23071 51.282 11.5267 51.282 14.3589Z" fill="#6A7788"/>
<path fill-rule="evenodd" clip-rule="evenodd" d="M46.1538 10.2564C43.8881 10.2564 42.0513 12.0931 42.0513 14.3589C42.0513 16.6247 43.8881 18.4615 46.1538 18.4615C48.4196 18.4615 50.2564 16.6247 50.2564 14.3589C50.2564 12.0931 48.4196 10.2564 46.1538 10.2564ZM40 14.3589C40 10.9602 42.7552 8.20508 46.1538 8.20508C49.5525 8.20508 52.3077 10.9602 52.3077 14.3589C52.3077 17.7576 49.5525 20.5128 46.1538 20.5128C42.7552 20.5128 40 17.7576 40 14.3589Z" fill="#FF934A"/>
<path d="M51.282 28.7179C51.282 31.5502 48.9861 33.8461 46.1538 33.8461C43.3216 33.8461 41.0256 31.5502 41.0256 28.7179C41.0256 25.8857 43.3216 23.5897 46.1538 23.5897C48.9861 23.5897 51.282 25.8857 51.282 28.7179Z" fill="#6A7788"/>
<path fill-rule="evenodd" clip-rule="evenodd" d="M46.1538 24.6154C43.8881 24.6154 42.0513 26.4521 42.0513 28.7179C42.0513 30.9837 43.8881 32.8205 46.1538 32.8205C48.4196 32.8205 50.2564 30.9837 50.2564 28.7179C50.2564 26.4521 48.4196 24.6154 46.1538 24.6154ZM40 28.7179C40 25.3193 42.7552 22.5641 46.1538 22.5641C49.5525 22.5641 52.3077 25.3193 52.3077 28.7179C52.3077 32.1166 49.5525 34.8718 46.1538 34.8718C42.7552 34.8718 40 32.1166 40 28.7179Z" fill="#FF934A"/>
<path d="M51.282 43.0768C51.282 45.909 48.9861 48.205 46.1538 48.205C43.3216 48.205 41.0256 45.909 41.0256 43.0768C41.0256 40.2446 43.3216 37.9486 46.1538 37.9486C48.9861 37.9486 51.282 40.2446 51.282 43.0768Z" fill="#6A7788"/>
<path fill-rule="evenodd" clip-rule="evenodd" d="M46.1538 38.9743C43.8881 38.9743 42.0513 40.811 42.0513 43.0768C42.0513 45.3426 43.8881 47.1794 46.1538 47.1794C48.4196 47.1794 50.2564 45.3426 50.2564 43.0768C50.2564 40.811 48.4196 38.9743 46.1538 38.9743ZM40 43.0768C40 39.6781 42.7552 36.923 46.1538 36.923C49.5525 36.923 52.3077 39.6781 52.3077 43.0768C52.3077 46.4755 49.5525 49.2307 46.1538 49.2307C42.7552 49.2307 40 46.4755 40 43.0768Z" fill="#FF934A"/>
<path fill-rule="evenodd" clip-rule="evenodd" d="M16.6307 39.6999C16.7168 39.9697 16.5678 40.2582 16.298 40.3443C16.0111 40.4358 15.1285 40.9389 14.5855 42.135C14.4685 42.3929 14.1645 42.5071 13.9066 42.39C13.6487 42.2729 13.5345 41.969 13.6516 41.7111C14.3162 40.247 15.4273 39.5455 15.9863 39.3672C16.2561 39.2811 16.5446 39.4301 16.6307 39.6999Z" fill="#FF934A"/>
<path fill-rule="evenodd" clip-rule="evenodd" d="M30.9897 39.6999C31.0757 39.9697 30.9268 40.2582 30.6569 40.3443C30.3701 40.4358 29.4875 40.9389 28.9445 42.135C28.8274 42.3929 28.5235 42.5071 28.2656 42.39C28.0077 42.2729 27.8935 41.969 28.0106 41.7111C28.6752 40.247 29.7862 39.5455 30.3453 39.3672C30.6151 39.2811 30.9036 39.4301 30.9897 39.6999Z" fill="#FF934A"/>
<path fill-rule="evenodd" clip-rule="evenodd" d="M45.349 39.6999C45.4351 39.9697 45.2861 40.2582 45.0163 40.3443C44.7295 40.4358 43.8468 40.9389 43.3039 42.135C43.1868 42.3929 42.8828 42.5071 42.6249 42.39C42.3671 42.2729 42.2529 41.969 42.37 41.7111C43.0346 40.247 44.1456 39.5455 44.7046 39.3672C44.9745 39.2811 45.263 39.4301 45.349 39.6999Z" fill="#FF934A"/>
<path fill-rule="evenodd" clip-rule="evenodd" d="M16.6307 25.3409C16.7168 25.6107 16.5678 25.8992 16.298 25.9853C16.0111 26.0768 15.1285 26.5799 14.5855 27.776C14.4685 28.0339 14.1645 28.1481 13.9066 28.031C13.6487 27.9139 13.5345 27.6099 13.6516 27.3521C14.3162 25.888 15.4273 25.1865 15.9863 25.0082C16.2561 24.9221 16.5446 25.0711 16.6307 25.3409Z" fill="#FF934A"/>
<path fill-rule="evenodd" clip-rule="evenodd" d="M30.9897 25.3409C31.0757 25.6107 30.9268 25.8992 30.6569 25.9853C30.3701 26.0768 29.4875 26.5799 28.9445 27.776C28.8274 28.0339 28.5235 28.1481 28.2656 28.031C28.0077 27.9139 27.8935 27.6099 28.0106 27.3521C28.6752 25.888 29.7862 25.1865 30.3453 25.0082C30.6151 24.9221 30.9036 25.0711 30.9897 25.3409Z" fill="#FF934A"/>
<path fill-rule="evenodd" clip-rule="evenodd" d="M45.349 25.3409C45.4351 25.6107 45.2861 25.8992 45.0163 25.9853C44.7295 26.0768 43.8468 26.5799 43.3039 27.776C43.1868 28.0339 42.8828 28.1481 42.6249 28.031C42.3671 27.9139 42.2529 27.6099 42.37 27.3521C43.0346 25.888 44.1456 25.1865 44.7046 25.0082C44.9745 24.9221 45.263 25.0711 45.349 25.3409Z" fill="#FF934A"/>
<path fill-rule="evenodd" clip-rule="evenodd" d="M16.6307 10.9819C16.7168 11.2517 16.5678 11.5402 16.298 11.6263C16.0111 11.7178 15.1285 12.2209 14.5855 13.417C14.4685 13.6749 14.1645 13.7891 13.9066 13.672C13.6487 13.5549 13.5345 13.2509 13.6516 12.993C14.3162 11.529 15.4273 10.8275 15.9863 10.6491C16.2561 10.5631 16.5446 10.712 16.6307 10.9819Z" fill="#FF934A"/>
<path fill-rule="evenodd" clip-rule="evenodd" d="M30.9897 10.9819C31.0757 11.2517 30.9268 11.5402 30.6569 11.6263C30.3701 11.7178 29.4875 12.2209 28.9445 13.417C28.8274 13.6749 28.5235 13.7891 28.2656 13.672C28.0077 13.5549 27.8935 13.2509 28.0106 12.993C28.6752 11.529 29.7862 10.8275 30.3453 10.6491C30.6151 10.5631 30.9036 10.712 30.9897 10.9819Z" fill="#FF934A"/>
<path fill-rule="evenodd" clip-rule="evenodd" d="M45.349 10.9819C45.4351 11.2517 45.2861 11.5402 45.0163 11.6263C44.7295 11.7178 43.8468 12.2209 43.3039 13.417C43.1868 13.6749 42.8828 13.7891 42.6249 13.672C42.3671 13.5549 42.2529 13.2509 42.37 12.993C43.0346 11.529 44.1456 10.8275 44.7046 10.6491C44.9745 10.5631 45.263 10.712 45.349 10.9819Z" fill="#FF934A"/>
<path d="M56.4102 12.3076C56.4102 11.1747 57.3286 10.2563 58.4615 10.2563H68.7179C69.8508 10.2563 70.7692 11.1747 70.7692 12.3076V30.7692C70.7692 31.9021 69.8508 32.8204 68.7179 32.8204H58.4615C57.3286 32.8204 56.4102 31.9021 56.4102 30.7692V12.3076Z" fill="#FF934A"/>
<path fill-rule="evenodd" clip-rule="evenodd" d="M58.4615 8.20508H68.718C70.9837 8.20508 72.8205 10.0419 72.8205 12.3076V30.7692C72.8205 33.035 70.9837 34.8717 68.718 34.8717H58.4615C56.1958 34.8717 54.359 33.035 54.359 30.7692V12.3076C54.359 10.0419 56.1958 8.20508 58.4615 8.20508ZM58.4615 10.2564C57.3287 10.2564 56.4103 11.1747 56.4103 12.3076V30.7692C56.4103 31.9021 57.3287 32.8205 58.4615 32.8205H68.718C69.8508 32.8205 70.7692 31.9021 70.7692 30.7692V12.3076C70.7692 11.1748 69.8508 10.2564 68.718 10.2564H58.4615Z" fill="#FF934A"/>
<path d="M58.4615 13.3334C58.4615 12.7669 58.9207 12.3077 59.4872 12.3077H67.6923C68.2588 12.3077 68.718 12.7669 68.718 13.3334V17.4359C68.718 18.0024 68.2588 18.4616 67.6923 18.4616H59.4872C58.9207 18.4616 58.4615 18.0024 58.4615 17.4359V13.3334Z" fill="#F2C94C"/>
<path d="M2.05127 14.359C2.05127 13.7926 2.51046 13.3334 3.07691 13.3334H5.12819C5.69464 13.3334 6.15383 13.7926 6.15383 14.359V16.4103C6.15383 16.9767 5.69464 17.4359 5.12819 17.4359H3.07691C2.51046 17.4359 2.05127 16.9767 2.05127 16.4103V14.359Z" fill="#57677B"/>
<path fill-rule="evenodd" clip-rule="evenodd" d="M3.07692 11.2821H5.12821C6.82754 11.2821 8.20513 12.6597 8.20513 14.359V16.4103C8.20513 18.1096 6.82754 19.4872 5.12821 19.4872H3.07692C1.37759 19.4872 0 18.1096 0 16.4103V14.359C0 12.6597 1.37759 11.2821 3.07692 11.2821ZM3.07692 13.3334C2.51048 13.3334 2.05128 13.7926 2.05128 14.359V16.4103C2.05128 16.9768 2.51048 17.4359 3.07692 17.4359H5.12821C5.69465 17.4359 6.15385 16.9768 6.15385 16.4103V14.359C6.15385 13.7926 5.69465 13.3334 5.12821 13.3334H3.07692Z" fill="#7B7AFF"/>
<path d="M2.05127 38.9744C2.05127 38.4079 2.51046 37.9487 3.07691 37.9487H5.12819C5.69464 37.9487 6.15383 38.4079 6.15383 38.9744V41.0257C6.15383 41.5921 5.69464 42.0513 5.12819 42.0513H3.07691C2.51046 42.0513 2.05127 41.5921 2.05127 41.0257V38.9744Z" fill="#57677B"/>
<path fill-rule="evenodd" clip-rule="evenodd" d="M3.07692 35.8975H5.12821C6.82754 35.8975 8.20513 37.275 8.20513 38.9744V41.0257C8.20513 42.725 6.82754 44.1026 5.12821 44.1026H3.07692C1.37759 44.1026 0 42.725 0 41.0257V38.9744C0 37.275 1.37759 35.8975 3.07692 35.8975ZM3.07692 37.9487C2.51048 37.9487 2.05128 38.4079 2.05128 38.9744V41.0257C2.05128 41.5921 2.51048 42.0513 3.07692 42.0513H5.12821C5.69465 42.0513 6.15385 41.5921 6.15385 41.0257V38.9744C6.15385 38.4079 5.69465 37.9487 5.12821 37.9487H3.07692Z" fill="#7B7AFF"/>
</g>
<defs>
<clipPath id="clip0_111_306">
<rect width="80" height="57.4359" fill="white"/>
</clipPath>
</defs>
</svg>
