<svg width="80" height="62" viewBox="0 0 80 62" fill="none" xmlns="http://www.w3.org/2000/svg">
<path d="M2 14C2 10.6863 4.68629 8 8 8H72C75.3137 8 78 10.6863 78 14V56C78 59.3137 75.3137 62 72 62H10C5.58172 62 2 58.4183 2 54V14Z" fill="#2C3C4F"/>
<path fill-rule="evenodd" clip-rule="evenodd" d="M10 2C5.58172 2 2 5.58172 2 10V14V16V50C2 54.4183 5.58172 58 10 58H70C72.2091 58 74 56.2091 74 54V14C74 11.7909 72.2091 10 70 10V6C70 3.79086 68.2091 2 66 2H10Z" fill="#6A7788"/>
<path fill-rule="evenodd" clip-rule="evenodd" d="M0 10C0 4.47715 4.47715 0 10 0H66C69.3137 0 72 2.68629 72 6V8.34141C74.3304 9.16508 76 11.3876 76 14V54C76 57.3137 73.3137 60 70 60H10C4.47715 60 0 55.5228 0 50V10ZM70 10C72.2091 10 74 11.7909 74 14V54C74 56.2091 72.2091 58 70 58H10C5.58172 58 2 54.4183 2 50V10C2 5.58172 5.58172 2 10 2H66C68.2091 2 70 3.79086 70 6V10Z" fill="#2C3C4F"/>
<path fill-rule="evenodd" clip-rule="evenodd" d="M4 11C4.55228 11 5 11.4477 5 12V52C5 52.5523 4.55228 53 4 53C3.44772 53 3 52.5523 3 52V12C3 11.4477 3.44772 11 4 11Z" fill="#FF934A"/>
<path d="M66 2H9C7.34314 2 5.99999 3.34315 6 5.00001C6.00001 6.65686 7.34315 8 9 8H70V6C70 3.79086 68.2092 2 66 2Z" fill="#2C3C4F"/>
<path d="M70 10V6H8C6.89543 6 5.99999 6.89544 6 8.00001C6.00001 9.10458 6.89543 10 8 10H70Z" fill="#FF934A"/>
<path fill-rule="evenodd" clip-rule="evenodd" d="M9 2C7.34315 2 6 3.34315 6 5C6 6.65685 7.34315 8 9 8H71C71.5523 8 72 8.44772 72 9C72 9.55229 71.5523 10 71 10H9C6.23858 10 4 7.76142 4 5C4 2.23858 6.23858 0 9 0H26C26.5523 0 27 0.447715 27 1C27 1.55228 26.5523 2 26 2H9Z" fill="#2C3C4F"/>
<path d="M56 48C56 48.5523 55.5523 49 55 49C54.4477 49 54 48.5523 54 48C54 47.4477 54.4477 47 55 47C55.5523 47 56 47.4477 56 48Z" fill="#FF934A"/>
<path d="M60 47C60 47.5523 59.5523 48 59 48C58.4477 48 58 47.5523 58 47C58 46.4477 58.4477 46 59 46C59.5523 46 60 46.4477 60 47Z" fill="#FF934A"/>
<path d="M61 50.5C61 51.3284 60.3284 52 59.5 52C58.6716 52 58 51.3284 58 50.5C58 49.6716 58.6716 49 59.5 49C60.3284 49 61 49.6716 61 50.5Z" fill="#FF934A"/>
<path d="M71 52.5C71 53.3284 70.3284 54 69.5 54C68.6716 54 68 53.3284 68 52.5C68 51.6716 68.6716 51 69.5 51C70.3284 51 71 51.6716 71 52.5Z" fill="#FF934A"/>
<path d="M57 52.5C57 53.3284 56.3284 54 55.5 54C54.6716 54 54 53.3284 54 52.5C54 51.6716 54.6716 51 55.5 51C56.3284 51 57 51.6716 57 52.5Z" fill="#FF934A"/>
<path d="M51 51C51 51.5523 50.5523 52 50 52C49.4477 52 49 51.5523 49 51C49 50.4477 49.4477 50 50 50C50.5523 50 51 50.4477 51 51Z" fill="#FF934A"/>
<path d="M47 54C47 54.5523 46.5523 55 46 55C45.4477 55 45 54.5523 45 54C45 53.4477 45.4477 53 46 53C46.5523 53 47 53.4477 47 54Z" fill="#FF934A"/>
<path d="M71 42C71 42.5523 70.5523 43 70 43C69.4477 43 69 42.5523 69 42C69 41.4477 69.4477 41 70 41C70.5523 41 71 41.4477 71 42Z" fill="#FF934A"/>
<path d="M63 43C63 43.5523 62.5523 44 62 44C61.4477 44 61 43.5523 61 43C61 42.4477 61.4477 42 62 42C62.5523 42 63 42.4477 63 43Z" fill="#FF934A"/>
<path d="M59 55C59 55.5523 58.5523 56 58 56C57.4477 56 57 55.5523 57 55C57 54.4477 57.4477 54 58 54C58.5523 54 59 54.4477 59 55Z" fill="#FF934A"/>
<path d="M52 55C52 55.5523 51.5523 56 51 56C50.4477 56 50 55.5523 50 55C50 54.4477 50.4477 54 51 54C51.5523 54 52 54.4477 52 55Z" fill="#FF934A"/>
<path d="M64 48C64 48.5523 63.5523 49 63 49C62.4477 49 62 48.5523 62 48C62 47.4477 62.4477 47 63 47C63.5523 47 64 47.4477 64 48Z" fill="#FF934A"/>
<path d="M67 50C67 50.5523 66.5523 51 66 51C65.4477 51 65 50.5523 65 50C65 49.4477 65.4477 49 66 49C66.5523 49 67 49.4477 67 50Z" fill="#FF934A"/>
<path d="M72 47C72 47.5523 71.5523 48 71 48C70.4477 48 70 47.5523 70 47C70 46.4477 70.4477 46 71 46C71.5523 46 72 46.4477 72 47Z" fill="#FF934A"/>
<path d="M68 45.5C68 46.3284 67.3284 47 66.5 47C65.6716 47 65 46.3284 65 45.5C65 44.6716 65.6716 44 66.5 44C67.3284 44 68 44.6716 68 45.5Z" fill="#FF934A"/>
<path d="M63 53C63 53.5523 62.5523 54 62 54C61.4477 54 61 53.5523 61 53C61 52.4477 61.4477 52 62 52C62.5523 52 63 52.4477 63 53Z" fill="#FF934A"/>
<path d="M66 55C66 55.5523 65.5523 56 65 56C64.4477 56 64 55.5523 64 55C64 54.4477 64.4477 54 65 54C65.5523 54 66 54.4477 66 55Z" fill="#FF934A"/>
<path d="M54 35C54 32.2386 56.2386 30 59 30H76C77.1046 30 78 30.8954 78 32V38C78 39.1046 77.1046 40 76 40H59C56.2386 40 54 37.7614 54 35Z" fill="#FF934A"/>
<path fill-rule="evenodd" clip-rule="evenodd" d="M59 28H76C78.2091 28 80 29.7909 80 32V38C80 40.2091 78.2091 42 76 42H59C55.134 42 52 38.866 52 35C52 31.134 55.134 28 59 28ZM59 30C56.2386 30 54 32.2386 54 35C54 37.7614 56.2386 40 59 40H76C77.1046 40 78 39.1046 78 38V32C78 30.8954 77.1046 30 76 30H59Z" fill="#2C3C4F"/>
<path fill-rule="evenodd" clip-rule="evenodd" d="M54 35C54 32.2386 56.2386 30 59 30H75C75.5523 30 76 30.4477 76 31C76 31.5523 75.5523 32 75 32H59C57.3431 32 56 33.3431 56 35H54Z" fill="#7B7AFF"/>
<path fill-rule="evenodd" clip-rule="evenodd" d="M54 35C54 32.2386 56.2386 30 59 30H60C60.5523 30 61 30.4477 61 31C61 31.5523 60.5523 32 60 32H59C57.3431 32 56 33.3431 56 35V36C56 36.5523 55.5523 37 55 37C54.4477 37 54 36.5523 54 36V35Z" fill="#7B7AFF"/>
<path d="M62 35C62 36.6569 60.6569 38 59 38C57.3431 38 56 36.6569 56 35C56 33.3431 57.3431 32 59 32C60.6569 32 62 33.3431 62 35Z" fill="#2C3C4F"/>
<path fill-rule="evenodd" clip-rule="evenodd" d="M8 3C8 2.44772 8.44772 2 9 2H64C64.5523 2 65 2.44772 65 3C65 3.55228 64.5523 4 64 4H9C8.44772 4 8 3.55228 8 3Z" fill="#6A7788"/>
<path fill-rule="evenodd" clip-rule="evenodd" d="M9 11C9 10.4477 9.44772 10 10 10H68C68.5523 10 69 10.4477 69 11C69 11.5523 68.5523 12 68 12H10C9.44772 12 9 11.5523 9 11Z" fill="#FF934A"/>
<path fill-rule="evenodd" clip-rule="evenodd" d="M3.9855 7.14254C4.45908 6.85839 5.07334 7.01195 5.35749 7.48553C6.01532 8.58191 6.74606 9.18633 7.48538 9.53135C8.24 9.8835 9.07771 10 10 10H24C24.5523 10 25 10.4477 25 11C25 11.5523 24.5523 12 24 12H10C8.92229 12 7.76 11.8666 6.63961 11.3437C5.50394 10.8137 4.48468 9.91815 3.64251 8.51452C3.35836 8.04094 3.51192 7.42668 3.9855 7.14254Z" fill="#EC974A"/>
<circle cx="34" cy="35" r="14" stroke="#2C3C4F" stroke-width="2"/>
<path d="M22 35C22 28.3726 27.3726 23 34 23" stroke="#FF934A" stroke-width="2" stroke-linecap="round" stroke-linejoin="round"/>
<path d="M39 28.3333C37.8781 27.4909 36.5314 27 35.0832 27C31.1713 27 28 30.5817 28 35C28 39.4183 31.1713 43 35.0832 43C36.5314 43 37.8781 42.5091 39 41.6667" stroke="#2C3C4F" stroke-width="3" stroke-linecap="round" stroke-linejoin="round"/>
<path d="M25 37H33" stroke="#2C3C4F" stroke-width="2" stroke-linecap="round" stroke-linejoin="round"/>
<path d="M25 33H33" stroke="#2C3C4F" stroke-width="2" stroke-linecap="round" stroke-linejoin="round"/>
</svg>
